  0
SECTION
  2
HEADER
  9
$ACADVER
  1
AC1009
  9
$INSBASE
 10
0.0
 20
0.0
 30
0.0
  9
$EXTMIN
 10
24.2264504685000013
 20
73.799862098600002
 30
0.0
  9
$EXTMAX
 10
976.8264527572999896
 20
925.1998798368998678
 30
0.0
  9
$LIMMIN
 10
0.0
 20
0.0
  9
$LIMMAX
 10
1000.0
 20
1000.0
  9
$ORTHOMODE
 70
     0
  9
$REGENMODE
 70
     1
  9
$FILLMODE
 70
     1
  9
$QTEXTMODE
 70
     0
  9
$MIRRTEXT
 70
     1
  9
$DRAGMODE
 70
     2
  9
$LTSCALE
 40
1.0
  9
$OSMODE
 70
    37
  9
$ATTMODE
 70
     1
  9
$TEXTSIZE
 40
3.5
  9
$TRACEWID
 40
1.0
  9
$TEXTSTYLE
  7
STANDARD
  9
$CLAYER
  8
0
  9
$CELTYPE
  6
BYLAYER
  9
$CECOLOR
 62
   256
  9
$DIMSCALE
 40
1.0
  9
$DIMASZ
 40
3.302
  9
$DIMEXO
 40
1.0
  9
$DIMDLI
 40
3.75
  9
$DIMRND
 40
0.0
  9
$DIMDLE
 40
0.0
  9
$DIMEXE
 40
1.0
  9
$DIMTP
 40
0.0
  9
$DIMTM
 40
0.0
  9
$DIMTXT
 40
3.5
  9
$DIMCEN
 40
2.5
  9
$DIMTSZ
 40
0.0
  9
$DIMTOL
 70
     0
  9
$DIMLIM
 70
     0
  9
$DIMTIH
 70
     1
  9
$DIMTOH
 70
     1
  9
$DIMSE1
 70
     0
  9
$DIMSE2
 70
     0
  9
$DIMTAD
 70
     1
  9
$DIMZIN
 70
     1
  9
$DIMBLK
  1

  9
$DIMASO
 70
     1
  9
$DIMSHO
 70
     1
  9
$DIMPOST
  1

  9
$DIMAPOST
  1

  9
$DIMALT
 70
     0
  9
$DIMALTD
 70
     3
  9
$DIMALTF
 40
0.0393700787
  9
$DIMLFAC
 40
1.0
  9
$DIMTOFL
 70
     1
  9
$DIMTVP
 40
0.0
  9
$DIMTIX
 70
     0
  9
$DIMSOXD
 70
     0
  9
$DIMSAH
 70
     0
  9
$DIMBLK1
  1

  9
$DIMBLK2
  1

  9
$DIMSTYLE
  2
ISO-25
  9
$DIMCLRD
 70
     0
  9
$DIMCLRE
 70
     0
  9
$DIMCLRT
 70
     0
  9
$DIMTFAC
 40
1.0
  9
$DIMGAP
 40
1.524
  9
$LUNITS
 70
     2
  9
$LUPREC
 70
     2
  9
$SKETCHINC
 40
1.0
  9
$FILLETRAD
 40
10.0
  9
$AUNITS
 70
     0
  9
$AUPREC
 70
     2
  9
$MENU
  1
.
  9
$ELEVATION
 40
0.0
  9
$PELEVATION
 40
0.0
  9
$THICKNESS
 40
0.0
  9
$LIMCHECK
 70
     0
  9
$BLIPMODE
 70
     0
  9
$CHAMFERA
 40
0.0
  9
$CHAMFERB
 40
0.0
  9
$SKPOLY
 70
     0
  9
$TDCREATE
 40
2459254.8562384261749685
  9
$TDUPDATE
 40
2459254.8574537038803101
  9
$TDINDWG
 40
0.001006956
  9
$TDUSRTIMER
 40
0.001006956
  9
$USRTIMER
 70
     1
  9
$ANGBASE
 50
0.0
  9
$ANGDIR
 70
     0
  9
$PDMODE
 70
     0
  9
$PDSIZE
 40
-1.0
  9
$PLINEWID
 40
0.0
  9
$COORDS
 70
     1
  9
$SPLFRAME
 70
     0
  9
$SPLINETYPE
 70
     6
  9
$SPLINESEGS
 70
     8
  9
$ATTDIA
 70
     1
  9
$ATTREQ
 70
     1
  9
$HANDLING
 70
     1
  9
$HANDSEED
  5
46B
  9
$SURFTAB1
 70
     6
  9
$SURFTAB2
 70
     6
  9
$SURFTYPE
 70
     6
  9
$SURFU
 70
     6
  9
$SURFV
 70
     6
  9
$UCSNAME
  2

  9
$UCSORG
 10
0.0
 20
0.0
 30
0.0
  9
$UCSXDIR
 10
1.0
 20
0.0
 30
0.0
  9
$UCSYDIR
 10
0.0
 20
1.0
 30
0.0
  9
$PUCSNAME
  2

  9
$PUCSORG
 10
0.0
 20
0.0
 30
0.0
  9
$PUCSXDIR
 10
1.0
 20
0.0
 30
0.0
  9
$PUCSYDIR
 10
0.0
 20
1.0
 30
0.0
  9
$USERI1
 70
     0
  9
$USERI2
 70
     0
  9
$USERI3
 70
     0
  9
$USERI4
 70
     0
  9
$USERI5
 70
     0
  9
$USERR1
 40
0.0
  9
$USERR2
 40
0.0
  9
$USERR3
 40
0.0
  9
$USERR4
 40
0.0
  9
$USERR5
 40
0.0
  9
$WORLDVIEW
 70
     1
  9
$SHADEDGE
 70
     3
  9
$SHADEDIF
 70
    70
  9
$TILEMODE
 70
     1
  9
$MAXACTVP
 70
    64
  9
$PLIMCHECK
 70
     0
  9
$PEXTMIN
 10
1.0000000000000000E+20
 20
1.0000000000000000E+20
 30
1.0000000000000000E+20
  9
$PEXTMAX
 10
-1.0000000000000000E+20
 20
-1.0000000000000000E+20
 30
-1.0000000000000000E+20
  9
$PLIMMIN
 10
0.0
 20
0.0
  9
$PLIMMAX
 10
420.0
 20
297.0
  9
$UNITMODE
 70
     0
  9
$VISRETAIN
 70
     1
  9
$PLINEGEN
 70
     0
  9
$PSLTSCALE
 70
     1
  0
ENDSEC
  0
SECTION
  2
TABLES
  0
TABLE
  2
VPORT
 70
     1
  0
VPORT
  2
*ACTIVE
 70
     0
 10
0.0
 20
0.0
 11
1.0
 21
1.0
 12
57.866542106333327
 22
317.4136442654432813
 13
0.0
 23
0.0
 14
10.0
 24
10.0
 15
10.0
 25
10.0
 16
0.0
 26
0.0
 36
1.0
 17
0.0
 27
0.0
 37
0.0
 40
1525.9984795471200414
 41
2.0031479538300099
 42
50.0
 43
0.0
 44
0.0
 50
0.0
 51
0.0
 71
     0
 72
  2000
 73
     1
 74
     3
 75
     0
 76
     0
 77
     0
 78
     0
  0
ENDTAB
  0
TABLE
  2
LTYPE
 70
     8
  0
LTYPE
  2
CONTINUOUS
 70
     0
  3
Solid line
 72
    65
 73
     0
 40
0.0
  0
LTYPE
  2
SLD-SOLID
 70
     0
  3
SolidWorks Line Style
 72
    65
 73
     0
 40
0.0
  0
LTYPE
  2
SLD-DASHED
 70
     0
  3
SolidWorks Line Style
 72
    65
 73
     2
 40
1.905
 49
1.27
 49
-0.635
  0
LTYPE
  2
SLD-PHANTOM
 70
     0
  3
SolidWorks Line Style
 72
    65
 73
     6
 40
12.6999999999999993
 49
6.3499999999999988
 49
-1.27
 49
1.27
 49
-1.27
 49
1.27
 49
-1.27
  0
LTYPE
  2
SLD-CHAIN
 70
     0
  3
SolidWorks Line Style
 72
    65
 73
     4
 40
10.1600000000000001
 49
6.3499999999999988
 49
-1.27
 49
1.27
 49
-1.27
  0
LTYPE
  2
SLD-CENTER
 70
     0
  3
SolidWorks Line Style
 72
    65
 73
     4
 40
19.0500000000000007
 49
15.2400000000000002
 49
-1.27
 49
1.27
 49
-1.27
  0
LTYPE
  2
SLD-STITCH
 70
     0
  3
SolidWorks Line Style
 72
    65
 73
     2
 40
0.635
 49
0.0
 49
-0.635
  0
LTYPE
  2
SLD-THIN-THICK-CHAIN
 70
     0
  3
SolidWorks Line Style
 72
    65
 73
     4
 40
10.1600000000000001
 49
6.3499999999999988
 49
-1.27
 49
1.27
 49
-1.27
  0
ENDTAB
  0
TABLE
  2
LAYER
 70
     2
  0
LAYER
  2
0
 70
     0
 62
     7
  6
CONTINUOUS
  0
LAYER
  2
B
 70
     0
 62
    10
  6
SLD-CENTER
  0
ENDTAB
  0
TABLE
  2
STYLE
 70
     4
  0
STYLE
  2
STANDARD
 70
     0
 40
0.0
 41
1.0
 50
0.0
 71
     0
 42
3.5
  3
txt
  4

  0
STYLE
  2
SLDTEXTSTYLE0
 70
     0
 40
0.0
 41
1.0
 50
0.0
 71
     0
 42
2.5
  3
txt
  4

  0
STYLE
  2
SLDTEXTSTYLE1
 70
     0
 40
0.0
 41
0.9129999999999999
 50
0.0
 71
     0
 42
3.5
  3
txt
  4

  0
STYLE
  2
SLDTEXTSTYLE2
 70
     0
 40
0.0
 41
0.9129999999999999
 50
0.0
 71
     0
 42
3.5
  3
txt
  4

  0
ENDTAB
  0
TABLE
  2
VIEW
 70
     0
  0
ENDTAB
  0
TABLE
  2
UCS
 70
     0
  0
ENDTAB
  0
TABLE
  2
APPID
 70
     3
  0
APPID
  2
ACAD
 70
     0
  0
APPID
  2
ACAD_NAV_VCDISPLAY
 70
     0
  0
APPID
  2
ACAD_MLEADERVER
 70
     0
  0
ENDTAB
  0
TABLE
  2
DIMSTYLE
 70
     4
  0
DIMSTYLE
  2
ISO-25
 70
     0
  3

  4

  5

  6

  7

 40
1.0
 41
2.5
 42
0.625
 43
3.75
 44
1.25
 45
0.0
 46
0.0
 47
0.0
 48
0.0
140
2.5
141
2.5
142
0.0
143
0.0393700787
144
1.0
145
0.0
146
1.0
147
0.625
 71
     0
 72
     0
 73
     0
 74
     0
 75
     0
 76
     0
 77
     1
 78
     8
170
     0
171
     3
172
     1
173
     0
174
     0
175
     0
176
     0
177
     0
178
     0
  0
DIMSTYLE
  2
SLDDIMSTYLE0
 70
     0
  3

  4

  5

  6

  7

 40
1.0
 41
3.302
 42
0.0625
 43
0.38
 44
0.0
 45
0.000000001
 46
0.0
 47
0.0
 48
0.0
140
3.5
141
0.09
142
0.0
143
25.3999999999999986
144
1.0
145
0.0
146
1.0
147
0.875
 71
     0
 72
     0
 73
     0
 74
     0
 75
     0
 76
     0
 77
     1
 78
    12
170
     0
171
     2
172
     0
173
     1
174
     0
175
     0
176
     0
177
     0
178
     0
  0
DIMSTYLE
  2
SLDDIMSTYLE1
 70
     0
  3

  4

  5

  6
NONE
  7

 40
1.0
 41
3.302
 42
0.0625
 43
0.38
 44
0.0
 45
0.000000001
 46
0.0
 47
0.0
 48
0.0
140
3.5
141
0.0
142
0.0
143
25.3999999999999986
144
1.0
145
0.0
146
1.0
147
0.875
 71
     0
 72
     0
 73
     0
 74
     0
 75
     0
 76
     0
 77
     1
 78
     4
170
     0
171
     2
172
     1
173
     1
174
     0
175
     0
176
     0
177
     0
178
     0
  0
DIMSTYLE
  2
SLDDIMSTYLE2
 70
     0
  3

  4

  5

  6

  7

 40
1.0
 41
3.302
 42
0.0625
 43
0.38
 44
0.0
 45
0.000000001
 46
0.0
 47
0.0
 48
0.0
140
3.5
141
0.09
142
0.0
143
25.3999999999999986
144
1.0
145
0.0
146
1.0
147
0.875
 71
     0
 72
     0
 73
     0
 74
     0
 75
     0
 76
     0
 77
     1
 78
     4
170
     0
171
     2
172
     0
173
     1
174
     0
175
     0
176
     0
177
     0
178
     0
  0
ENDTAB
  0
ENDSEC
  0
SECTION
  2
BLOCKS
  0
BLOCK
  8
0
  2
$MODEL_SPACE
 70
     0
 10
0.0
 20
0.0
 30
0.0
  3
$MODEL_SPACE
  1

  0
ENDBLK
  5
21
  8
0
  0
BLOCK
 67
     1
  8
0
  2
$PAPER_SPACE
 70
     0
 10
0.0
 20
0.0
 30
0.0
  3
$PAPER_SPACE
  1

  0
ENDBLK
  5
1D
 67
     1
  8
0
  0
BLOCK
  8
0
  2
_D
 70
     0
 10
0.0
 20
0.0
 30
0.0
  3
_D
  1

  0
SOLID
  5
143
  8
B
 10
83.9536838660999933
 20
842.6998709677000079
 30
0.0
 11
83.4456838660999836
 21
839.397870967699987
 31
0.0
 12
84.4616838661000031
 22
839.397870967699987
 32
0.0
 13
84.4616838661000031
 23
839.397870967699987
 33
0.0
  0
SOLID
  5
144
  8
B
 10
83.9536838660999933
 20
680.8498709676998715
 30
0.0
 11
84.4616838661000031
 21
684.1518709677000061
 31
0.0
 12
83.4456838660999836
 22
684.1518709677000061
 32
0.0
 13
83.4456838660999836
 23
684.1518709677000061
 33
0.0
  0
LINE
  5
145
  8
B
 10
104.7264516128999929
 20
842.6998709677000079
 30
0.0
 11
82.9536838660999791
 21
842.6998709677000079
 31
0.0
  0
LINE
  5
146
  8
B
 10
104.7264516128999929
 20
680.8498709676998715
 30
0.0
 11
82.9536838660999791
 21
680.8498709676998715
 31
0.0
  0
LINE
  5
147
  8
B
 10
83.9536838660999933
 20
842.6998709677000079
 30
0.0
 11
83.9536838660999933
 21
680.8498709676998715
 31
0.0
  0
INSERT
  5
149
  8
0
  2
*U15
 10
0.0
 20
0.0
 30
0.0
  0
ENDBLK
  5
142
  8
0
  0
BLOCK
  8
0
  2
_D_1
 70
     0
 10
0.0
 20
0.0
 30
0.0
  3
_D_1
  1

  0
SOLID
  5
14E
  8
B
 10
296.3764516128999844
 20
887.5486859125999217
 30
0.0
 11
293.0744516129000203
 21
888.0566859125999599
 31
0.0
 12
293.0744516129000203
 22
887.0406859125998835
 32
0.0
 13
293.0744516129000203
 23
887.0406859125998835
 33
0.0
  0
SOLID
  5
14F
  8
B
 10
109.7264516128999929
 20
887.5486859125999217
 30
0.0
 11
113.0284516128999996
 21
887.0406859125998835
 31
0.0
 12
113.0284516128999996
 22
888.0566859125999599
 32
0.0
 13
113.0284516128999996
 23
888.0566859125999599
 33
0.0
  0
LINE
  5
150
  8
B
 10
296.3764516128999844
 20
847.6998709676998942
 30
0.0
 11
296.3764516128999844
 21
888.5486859125999217
 31
0.0
  0
LINE
  5
151
  8
B
 10
109.7264516128999929
 20
847.6998709676998942
 30
0.0
 11
109.7264516128999929
 21
888.5486859125999217
 31
0.0
  0
LINE
  5
152
  8
B
 10
296.3764516128999844
 20
887.5486859125999217
 30
0.0
 11
109.7264516128999929
 21
887.5486859125999217
 31
0.0
  0
INSERT
  5
153
  8
0
  2
*U16
 10
0.0
 20
0.0
 30
0.0
  0
ENDBLK
  5
14D
  8
0
  0
BLOCK
  8
0
  2
_NONE
 70
     0
 10
0.0
 20
0.0
 30
0.0
  3
_NONE
  1

  0
ENDBLK
  5
158
  8
0
  0
BLOCK
  8
0
  2
_D_2
 70
     0
 10
0.0
 20
0.0
 30
0.0
  3
_D_2
  1

  0
SOLID
  5
15C
  8
B
 10
108.6657914410999979
 20
843.7605311395000172
 30
0.0
 11
106.6901350944999933
 21
846.4546079758000587
 31
0.0
 12
105.9717146047999989
 22
845.7361874861998103
 32
0.0
 13
105.9717146047999989
 23
845.7361874861998103
 33
0.0
  0
LINE
  5
15D
  8
B
 10
108.6657914410999979
 20
843.7605311395000172
 30
0.0
 11
12.1117494261999994
 21
940.3145731544999535
 31
0.0
  0
LINE
  5
15E
  8
B
 10
108.6657914410999979
 20
843.7605311395000172
 30
0.0
 11
110.7871117847000022
 21
841.639210796000043
 31
0.0
  0
INSERT
  5
15F
  8
0
  2
*U17
 10
0.0
 20
0.0
 30
0.0
  0
INSERT
  5
160
  8
0
  2
*U18
 10
0.0
 20
0.0
 30
0.0
  0
ENDBLK
  5
15B
  8
0
  0
BLOCK
  8
0
  2
_D_3
 70
     0
 10
0.0
 20
0.0
 30
0.0
  3
_D_3
  1

  0
SOLID
  5
166
  8
B
 10
296.3764516128999844
 20
901.8965033710999251
 30
0.0
 11
299.6784516129000053
 21
901.3885033711000005
 31
0.0
 12
299.6784516129000053
 22
902.4045033710998496
 32
0.0
 13
299.6784516129000053
 23
902.4045033710998496
 33
0.0
  0
SOLID
  5
167
  8
B
 10
307.8764516128999844
 20
901.8965033710999251
 30
0.0
 11
304.5744516129000203
 21
902.4045033710998496
 31
0.0
 12
304.5744516129000203
 22
901.3885033711000005
 32
0.0
 13
304.5744516129000203
 23
901.3885033711000005
 33
0.0
  0
LINE
  5
168
  8
B
 10
296.3764516128999844
 20
685.8498709676998715
 30
0.0
 11
296.3764516128999844
 21
902.8965033711001524
 31
0.0
  0
LINE
  5
169
  8
B
 10
307.8764516128999844
 20
685.8498709676998715
 30
0.0
 11
307.8764516128999844
 21
902.8965033711001524
 31
0.0
  0
LINE
  5
16A
  8
B
 10
296.3764516128999844
 20
901.8965033710999251
 30
0.0
 11
276.3099459311000032
 21
901.8965033710999251
 31
0.0
  0
LINE
  5
16B
  8
B
 10
296.3764516128999844
 20
901.8965033710999251
 30
0.0
 11
307.8764516128999844
 21
901.8965033710999251
 31
0.0
  0
INSERT
  5
16C
  8
0
  2
*U19
 10
0.0
 20
0.0
 30
0.0
  0
ENDBLK
  5
165
  8
0
  0
BLOCK
  8
0
  2
_D_4
 70
     0
 10
0.0
 20
0.0
 30
0.0
  3
_D_4
  1

  0
SOLID
  5
171
  8
B
 10
63.2713505970000014
 20
668.8498709676998715
 30
0.0
 11
63.779350596999997
 21
672.1518709677000061
 31
0.0
 12
62.7633505969999987
 22
672.1518709677000061
 32
0.0
 13
62.7633505969999987
 23
672.1518709677000061
 33
0.0
  0
SOLID
  5
172
  8
B
 10
63.2713505970000014
 20
680.8498709676998715
 30
0.0
 11
62.7633505969999987
 21
677.5478709676998506
 31
0.0
 12
63.779350596999997
 22
677.5478709676998506
 32
0.0
 13
63.779350596999997
 23
677.5478709676998506
 33
0.0
  0
LINE
  5
173
  8
B
 10
112.7264516128999929
 20
668.8498709676998715
 30
0.0
 11
62.2713505970000014
 21
668.8498709676998715
 31
0.0
  0
LINE
  5
174
  8
B
 10
112.7264516128999929
 20
680.8498709676998715
 30
0.0
 11
62.2713505970000014
 21
680.8498709676998715
 31
0.0
  0
LINE
  5
175
  8
B
 10
63.2713505970000014
 20
668.8498709676998715
 30
0.0
 11
63.2713505970000014
 21
680.8498709676998715
 31
0.0
  0
LINE
  5
176
  8
B
 10
63.2713505970000014
 20
680.8498709676998715
 30
0.0
 11
63.2713505970000014
 21
697.7218383540999866
 31
0.0
  0
INSERT
  5
177
  8
0
  2
*U20
 10
0.0
 20
0.0
 30
0.0
  0
ENDBLK
  5
170
  8
0
  0
BLOCK
  8
0
  2
SW_CENTERMARKSYMBOL_0
 70
     0
 10
0.0
 20
0.0
 30
0.0
  3
SW_CENTERMARKSYMBOL_0
  1

  0
LINE
  5
17B
  8
B
 62
     0
 10
0.0
 20
0.0
 30
0.0
 11
0.0
 21
2.5
 31
0.0
  0
LINE
  5
17C
  8
B
 62
     0
 10
0.0
 20
0.0
 30
0.0
 11
-2.5
 21
0.0
 31
0.0
  0
LINE
  5
17D
  8
B
 62
     0
 10
0.0
 20
0.0
 30
0.0
 11
0.0
 21
-2.5
 31
0.0
  0
LINE
  5
17E
  8
B
 62
     0
 10
0.0
 20
0.0
 30
0.0
 11
2.5
 21
0.0
 31
0.0
  0
LINE
  5
17F
  8
B
 62
     0
 10
0.0
 20
-2.5
 30
0.0
 11
0.0
 21
-4.0
 31
0.0
  0
LINE
  5
180
  8
B
 62
     0
 10
-198.1500000000000057
 20
0.0
 30
0.0
 11
-198.1500000000000057
 21
2.5
 31
0.0
  0
LINE
  5
181
  8
B
 62
     0
 10
-198.1500000000000057
 20
0.0
 30
0.0
 11
-200.6500000000000057
 21
0.0
 31
0.0
  0
LINE
  5
182
  8
B
 62
     0
 10
-198.1500000000000057
 20
0.0
 30
0.0
 11
-198.1500000000000057
 21
-2.5
 31
0.0
  0
LINE
  5
183
  8
B
 62
     0
 10
-198.1500000000000057
 20
0.0
 30
0.0
 11
-195.6500000000000057
 21
0.0
 31
0.0
  0
LINE
  5
184
  8
B
 62
     0
 10
-200.6500000000000057
 20
0.0
 30
0.0
 11
-202.1500000000000057
 21
0.0
 31
0.0
  0
LINE
  5
185
  8
B
 62
     0
 10
-198.1500000000000057
 20
-2.5
 30
0.0
 11
-198.1500000000000057
 21
-4.0
 31
0.0
  0
LINE
  5
186
  8
B
 62
     0
 10
198.1500000000000057
 20
0.0
 30
0.0
 11
198.1500000000000057
 21
2.5
 31
0.0
  0
LINE
  5
187
  8
B
 62
     0
 10
198.1500000000000057
 20
0.0
 30
0.0
 11
195.6500000000000057
 21
0.0
 31
0.0
  0
LINE
  5
188
  8
B
 62
     0
 10
198.1500000000000057
 20
0.0
 30
0.0
 11
198.1500000000000057
 21
-2.5
 31
0.0
  0
LINE
  5
189
  8
B
 62
     0
 10
198.1500000000000057
 20
0.0
 30
0.0
 11
200.6500000000000057
 21
0.0
 31
0.0
  0
LINE
  5
18A
  8
B
 62
     0
 10
198.1500000000000057
 20
-2.5
 30
0.0
 11
198.1500000000000057
 21
-4.0
 31
0.0
  0
LINE
  5
18B
  8
B
 62
     0
 10
396.3000000000000114
 20
0.0
 30
0.0
 11
396.3000000000000114
 21
2.5
 31
0.0
  0
LINE
  5
18C
  8
B
 62
     0
 10
396.3000000000000114
 20
0.0
 30
0.0
 11
393.8000000000000114
 21
0.0
 31
0.0
  0
LINE
  5
18D
  8
B
 62
     0
 10
396.3000000000000114
 20
0.0
 30
0.0
 11
396.3000000000000114
 21
-2.5
 31
0.0
  0
LINE
  5
18E
  8
B
 62
     0
 10
396.3000000000000114
 20
0.0
 30
0.0
 11
398.8000000000000114
 21
0.0
 31
0.0
  0
LINE
  5
18F
  8
B
 62
     0
 10
396.3000000000000114
 20
-2.5
 30
0.0
 11
396.3000000000000114
 21
-4.0
 31
0.0
  0
LINE
  5
190
  8
B
 62
     0
 10
398.8000000000000114
 20
0.0
 30
0.0
 11
400.3000000000000114
 21
0.0
 31
0.0
  0
LINE
  5
191
  8
B
 62
     0
 10
-198.1500000000000057
 20
173.8499999999999943
 30
0.0
 11
-198.1500000000000057
 21
176.3499999999999943
 31
0.0
  0
LINE
  5
192
  8
B
 62
     0
 10
-198.1500000000000057
 20
173.8499999999999943
 30
0.0
 11
-200.6500000000000057
 21
173.8499999999999943
 31
0.0
  0
LINE
  5
193
  8
B
 62
     0
 10
-198.1500000000000057
 20
173.8499999999999943
 30
0.0
 11
-198.1500000000000057
 21
171.3499999999999943
 31
0.0
  0
LINE
  5
194
  8
B
 62
     0
 10
-198.1500000000000057
 20
173.8499999999999943
 30
0.0
 11
-195.6500000000000057
 21
173.8499999999999943
 31
0.0
  0
LINE
  5
195
  8
B
 62
     0
 10
-200.6500000000000057
 20
173.8499999999999943
 30
0.0
 11
-202.1500000000000057
 21
173.8499999999999943
 31
0.0
  0
LINE
  5
196
  8
B
 62
     0
 10
0.0
 20
173.8499999999999943
 30
0.0
 11
0.0
 21
176.3499999999999943
 31
0.0
  0
LINE
  5
197
  8
B
 62
     0
 10
0.0
 20
173.8499999999999943
 30
0.0
 11
-2.5
 21
173.8499999999999943
 31
0.0
  0
LINE
  5
198
  8
B
 62
     0
 10
0.0
 20
173.8499999999999943
 30
0.0
 11
0.0
 21
171.3499999999999943
 31
0.0
  0
LINE
  5
199
  8
B
 62
     0
 10
0.0
 20
173.8499999999999943
 30
0.0
 11
2.5
 21
173.8499999999999943
 31
0.0
  0
LINE
  5
19A
  8
B
 62
     0
 10
198.1500000000000057
 20
173.8499999999999943
 30
0.0
 11
198.1500000000000057
 21
176.3499999999999943
 31
0.0
  0
LINE
  5
19B
  8
B
 62
     0
 10
198.1500000000000057
 20
173.8499999999999943
 30
0.0
 11
195.6500000000000057
 21
173.8499999999999943
 31
0.0
  0
LINE
  5
19C
  8
B
 62
     0
 10
198.1500000000000057
 20
173.8499999999999943
 30
0.0
 11
198.1500000000000057
 21
171.3499999999999943
 31
0.0
  0
LINE
  5
19D
  8
B
 62
     0
 10
198.1500000000000057
 20
173.8499999999999943
 30
0.0
 11
200.6500000000000057
 21
173.8499999999999943
 31
0.0
  0
LINE
  5
19E
  8
B
 62
     0
 10
396.3000000000000114
 20
173.8499999999999943
 30
0.0
 11
396.3000000000000114
 21
176.3499999999999943
 31
0.0
  0
LINE
  5
19F
  8
B
 62
     0
 10
396.3000000000000114
 20
173.8499999999999943
 30
0.0
 11
393.8000000000000114
 21
173.8499999999999943
 31
0.0
  0
LINE
  5
1A0
  8
B
 62
     0
 10
396.3000000000000114
 20
173.8499999999999943
 30
0.0
 11
396.3000000000000114
 21
171.3499999999999943
 31
0.0
  0
LINE
  5
1A1
  8
B
 62
     0
 10
396.3000000000000114
 20
173.8499999999999943
 30
0.0
 11
398.8000000000000114
 21
173.8499999999999943
 31
0.0
  0
LINE
  5
1A2
  8
B
 62
     0
 10
398.8000000000000114
 20
173.8499999999999943
 30
0.0
 11
400.3000000000000114
 21
173.8499999999999943
 31
0.0
  0
LINE
  5
1A3
  8
B
 62
     0
 10
-198.1500000000000057
 20
347.6999999999999886
 30
0.0
 11
-198.1500000000000057
 21
350.1999999999999886
 31
0.0
  0
LINE
  5
1A4
  8
B
 62
     0
 10
-198.1500000000000057
 20
347.6999999999999886
 30
0.0
 11
-200.6500000000000057
 21
347.6999999999999886
 31
0.0
  0
LINE
  5
1A5
  8
B
 62
     0
 10
-198.1500000000000057
 20
347.6999999999999886
 30
0.0
 11
-198.1500000000000057
 21
345.1999999999999886
 31
0.0
  0
LINE
  5
1A6
  8
B
 62
     0
 10
-198.1500000000000057
 20
347.6999999999999886
 30
0.0
 11
-195.6500000000000057
 21
347.6999999999999886
 31
0.0
  0
LINE
  5
1A7
  8
B
 62
     0
 10
-200.6500000000000057
 20
347.6999999999999886
 30
0.0
 11
-202.1500000000000057
 21
347.6999999999999886
 31
0.0
  0
LINE
  5
1A8
  8
B
 62
     0
 10
0.0
 20
347.6999999999999886
 30
0.0
 11
0.0
 21
350.1999999999999886
 31
0.0
  0
LINE
  5
1A9
  8
B
 62
     0
 10
0.0
 20
347.6999999999999886
 30
0.0
 11
-2.5
 21
347.6999999999999886
 31
0.0
  0
LINE
  5
1AA
  8
B
 62
     0
 10
0.0
 20
347.6999999999999886
 30
0.0
 11
0.0
 21
345.1999999999999886
 31
0.0
  0
LINE
  5
1AB
  8
B
 62
     0
 10
0.0
 20
347.6999999999999886
 30
0.0
 11
2.5
 21
347.6999999999999886
 31
0.0
  0
LINE
  5
1AC
  8
B
 62
     0
 10
198.1500000000000057
 20
347.6999999999999886
 30
0.0
 11
198.1500000000000057
 21
350.1999999999999886
 31
0.0
  0
LINE
  5
1AD
  8
B
 62
     0
 10
198.1500000000000057
 20
347.6999999999999886
 30
0.0
 11
195.6500000000000057
 21
347.6999999999999886
 31
0.0
  0
LINE
  5
1AE
  8
B
 62
     0
 10
198.1500000000000057
 20
347.6999999999999886
 30
0.0
 11
198.1500000000000057
 21
345.1999999999999886
 31
0.0
  0
LINE
  5
1AF
  8
B
 62
     0
 10
198.1500000000000057
 20
347.6999999999999886
 30
0.0
 11
200.6500000000000057
 21
347.6999999999999886
 31
0.0
  0
LINE
  5
1B0
  8
B
 62
     0
 10
396.3000000000000114
 20
347.6999999999999886
 30
0.0
 11
396.3000000000000114
 21
350.1999999999999886
 31
0.0
  0
LINE
  5
1B1
  8
B
 62
     0
 10
396.3000000000000114
 20
347.6999999999999886
 30
0.0
 11
393.8000000000000114
 21
347.6999999999999886
 31
0.0
  0
LINE
  5
1B2
  8
B
 62
     0
 10
396.3000000000000114
 20
347.6999999999999886
 30
0.0
 11
396.3000000000000114
 21
345.1999999999999886
 31
0.0
  0
LINE
  5
1B3
  8
B
 62
     0
 10
396.3000000000000114
 20
347.6999999999999886
 30
0.0
 11
398.8000000000000114
 21
347.6999999999999886
 31
0.0
  0
LINE
  5
1B4
  8
B
 62
     0
 10
398.8000000000000114
 20
347.6999999999999886
 30
0.0
 11
400.3000000000000114
 21
347.6999999999999886
 31
0.0
  0
LINE
  5
1B5
  8
B
 62
     0
 10
-198.1500000000000057
 20
521.5499999999999545
 30
0.0
 11
-198.1500000000000057
 21
524.0499999999999545
 31
0.0
  0
LINE
  5
1B6
  8
B
 62
     0
 10
-198.1500000000000057
 20
521.5499999999999545
 30
0.0
 11
-200.6500000000000057
 21
521.5499999999999545
 31
0.0
  0
LINE
  5
1B7
  8
B
 62
     0
 10
-198.1500000000000057
 20
521.5499999999999545
 30
0.0
 11
-198.1500000000000057
 21
519.0499999999999545
 31
0.0
  0
LINE
  5
1B8
  8
B
 62
     0
 10
-198.1500000000000057
 20
521.5499999999999545
 30
0.0
 11
-195.6500000000000057
 21
521.5499999999999545
 31
0.0
  0
LINE
  5
1B9
  8
B
 62
     0
 10
-198.1500000000000057
 20
524.0499999999999545
 30
0.0
 11
-198.1500000000000057
 21
525.5499999999999545
 31
0.0
  0
LINE
  5
1BA
  8
B
 62
     0
 10
-200.6500000000000057
 20
521.5499999999999545
 30
0.0
 11
-202.1500000000000057
 21
521.5499999999999545
 31
0.0
  0
LINE
  5
1BB
  8
B
 62
     0
 10
0.0
 20
521.5499999999999545
 30
0.0
 11
0.0
 21
524.0499999999999545
 31
0.0
  0
LINE
  5
1BC
  8
B
 62
     0
 10
0.0
 20
521.5499999999999545
 30
0.0
 11
-2.5
 21
521.5499999999999545
 31
0.0
  0
LINE
  5
1BD
  8
B
 62
     0
 10
0.0
 20
521.5499999999999545
 30
0.0
 11
0.0
 21
519.0499999999999545
 31
0.0
  0
LINE
  5
1BE
  8
B
 62
     0
 10
0.0
 20
521.5499999999999545
 30
0.0
 11
2.5
 21
521.5499999999999545
 31
0.0
  0
LINE
  5
1BF
  8
B
 62
     0
 10
0.0
 20
524.0499999999999545
 30
0.0
 11
0.0
 21
525.5499999999999545
 31
0.0
  0
LINE
  5
1C0
  8
B
 62
     0
 10
198.1500000000000057
 20
521.5499999999999545
 30
0.0
 11
198.1500000000000057
 21
524.0499999999999545
 31
0.0
  0
LINE
  5
1C1
  8
B
 62
     0
 10
198.1500000000000057
 20
521.5499999999999545
 30
0.0
 11
195.6500000000000057
 21
521.5499999999999545
 31
0.0
  0
LINE
  5
1C2
  8
B
 62
     0
 10
198.1500000000000057
 20
521.5499999999999545
 30
0.0
 11
198.1500000000000057
 21
519.0499999999999545
 31
0.0
  0
LINE
  5
1C3
  8
B
 62
     0
 10
198.1500000000000057
 20
521.5499999999999545
 30
0.0
 11
200.6500000000000057
 21
521.5499999999999545
 31
0.0
  0
LINE
  5
1C4
  8
B
 62
     0
 10
198.1500000000000057
 20
524.0499999999999545
 30
0.0
 11
198.1500000000000057
 21
525.5499999999999545
 31
0.0
  0
LINE
  5
1C5
  8
B
 62
     0
 10
396.3000000000000114
 20
521.5499999999999545
 30
0.0
 11
396.3000000000000114
 21
524.0499999999999545
 31
0.0
  0
LINE
  5
1C6
  8
B
 62
     0
 10
396.3000000000000114
 20
521.5499999999999545
 30
0.0
 11
393.8000000000000114
 21
521.5499999999999545
 31
0.0
  0
LINE
  5
1C7
  8
B
 62
     0
 10
396.3000000000000114
 20
521.5499999999999545
 30
0.0
 11
396.3000000000000114
 21
519.0499999999999545
 31
0.0
  0
LINE
  5
1C8
  8
B
 62
     0
 10
396.3000000000000114
 20
521.5499999999999545
 30
0.0
 11
398.8000000000000114
 21
521.5499999999999545
 31
0.0
  0
LINE
  5
1C9
  8
B
 62
     0
 10
396.3000000000000114
 20
524.0499999999999545
 30
0.0
 11
396.3000000000000114
 21
525.5499999999999545
 31
0.0
  0
LINE
  5
1CA
  8
B
 62
     0
 10
398.8000000000000114
 20
521.5499999999999545
 30
0.0
 11
400.3000000000000114
 21
521.5499999999999545
 31
0.0
  0
LINE
  5
1CB
  8
B
 62
     0
 10
-193.1500000000000057
 20
0.0
 30
0.0
 11
-5.0
 21
0.0
 31
0.0
  0
LINE
  5
1CC
  8
B
 62
     0
 10
5.0
 20
0.0
 30
0.0
 11
193.1500000000000057
 21
0.0
 31
0.0
  0
LINE
  5
1CD
  8
B
 62
     0
 10
203.1500000000000057
 20
0.0
 30
0.0
 11
391.3000000000000114
 21
0.0
 31
0.0
  0
LINE
  5
1CE
  8
B
 62
     0
 10
-193.1500000000000057
 20
173.8499999999999943
 30
0.0
 11
-5.0
 21
173.8499999999999943
 31
0.0
  0
LINE
  5
1CF
  8
B
 62
     0
 10
5.0
 20
173.8499999999999943
 30
0.0
 11
193.1500000000000057
 21
173.8499999999999943
 31
0.0
  0
LINE
  5
1D0
  8
B
 62
     0
 10
203.1500000000000057
 20
173.8499999999999943
 30
0.0
 11
391.3000000000000114
 21
173.8499999999999943
 31
0.0
  0
LINE
  5
1D1
  8
B
 62
     0
 10
-193.1500000000000057
 20
347.6999999999999886
 30
0.0
 11
-5.0
 21
347.6999999999999886
 31
0.0
  0
LINE
  5
1D2
  8
B
 62
     0
 10
5.0
 20
347.6999999999999886
 30
0.0
 11
193.1500000000000057
 21
347.6999999999999886
 31
0.0
  0
LINE
  5
1D3
  8
B
 62
     0
 10
203.1500000000000057
 20
347.6999999999999886
 30
0.0
 11
391.3000000000000114
 21
347.6999999999999886
 31
0.0
  0
LINE
  5
1D4
  8
B
 62
     0
 10
-193.1500000000000057
 20
521.5499999999999545
 30
0.0
 11
-5.0
 21
521.5499999999999545
 31
0.0
  0
LINE
  5
1D5
  8
B
 62
     0
 10
5.0
 20
521.5499999999999545
 30
0.0
 11
193.1500000000000057
 21
521.5499999999999545
 31
0.0
  0
LINE
  5
1D6
  8
B
 62
     0
 10
203.1500000000000057
 20
521.5499999999999545
 30
0.0
 11
391.3000000000000114
 21
521.5499999999999545
 31
0.0
  0
LINE
  5
1D7
  8
B
 62
     0
 10
-198.1500000000000057
 20
5.0
 30
0.0
 11
-198.1500000000000057
 21
168.8499999999999943
 31
0.0
  0
LINE
  5
1D8
  8
B
 62
     0
 10
-198.1500000000000057
 20
178.8499999999999943
 30
0.0
 11
-198.1500000000000057
 21
342.6999999999999886
 31
0.0
  0
LINE
  5
1D9
  8
B
 62
     0
 10
-198.1500000000000057
 20
352.6999999999999886
 30
0.0
 11
-198.1500000000000057
 21
516.5499999999999545
 31
0.0
  0
LINE
  5
1DA
  8
B
 62
     0
 10
0.0
 20
5.0
 30
0.0
 11
0.0
 21
168.8499999999999943
 31
0.0
  0
LINE
  5
1DB
  8
B
 62
     0
 10
0.0
 20
178.8499999999999943
 30
0.0
 11
0.0
 21
342.6999999999999886
 31
0.0
  0
LINE
  5
1DC
  8
B
 62
     0
 10
0.0
 20
352.6999999999999886
 30
0.0
 11
0.0
 21
516.5499999999999545
 31
0.0
  0
LINE
  5
1DD
  8
B
 62
     0
 10
198.1500000000000057
 20
5.0
 30
0.0
 11
198.1500000000000057
 21
168.8499999999999943
 31
0.0
  0
LINE
  5
1DE
  8
B
 62
     0
 10
198.1500000000000057
 20
178.8499999999999943
 30
0.0
 11
198.1500000000000057
 21
342.6999999999999886
 31
0.0
  0
LINE
  5
1DF
  8
B
 62
     0
 10
198.1500000000000057
 20
352.6999999999999886
 30
0.0
 11
198.1500000000000057
 21
516.5499999999999545
 31
0.0
  0
LINE
  5
1E0
  8
B
 62
     0
 10
396.3000000000000114
 20
5.0
 30
0.0
 11
396.3000000000000114
 21
168.8499999999999943
 31
0.0
  0
LINE
  5
1E1
  8
B
 62
     0
 10
396.3000000000000114
 20
178.8499999999999943
 30
0.0
 11
396.3000000000000114
 21
342.6999999999999886
 31
0.0
  0
LINE
  5
1E2
  8
B
 62
     0
 10
396.3000000000000114
 20
352.6999999999999886
 30
0.0
 11
396.3000000000000114
 21
516.5499999999999545
 31
0.0
  0
ENDBLK
  5
17A
  8
0
  0
BLOCK
  8
0
  2
SW_CENTERMARKSYMBOL_1
 70
     0
 10
0.0
 20
0.0
 30
0.0
  3
SW_CENTERMARKSYMBOL_1
  1

  0
LINE
  5
1E7
  8
B
 62
     0
 10
0.0
 20
0.0
 30
0.0
 11
0.0
 21
2.5
 31
0.0
  0
LINE
  5
1E8
  8
B
 62
     0
 10
0.0
 20
0.0
 30
0.0
 11
-2.5
 21
0.0
 31
0.0
  0
LINE
  5
1E9
  8
B
 62
     0
 10
0.0
 20
0.0
 30
0.0
 11
0.0
 21
-2.5
 31
0.0
  0
LINE
  5
1EA
  8
B
 62
     0
 10
0.0
 20
0.0
 30
0.0
 11
2.5
 21
0.0
 31
0.0
  0
LINE
  5
1EB
  8
B
 62
     0
 10
0.0
 20
-2.5
 30
0.0
 11
0.0
 21
-4.0
 31
0.0
  0
LINE
  5
1EC
  8
B
 62
     0
 10
-198.1500000000000057
 20
0.0
 30
0.0
 11
-198.1500000000000057
 21
2.5
 31
0.0
  0
LINE
  5
1ED
  8
B
 62
     0
 10
-198.1500000000000057
 20
0.0
 30
0.0
 11
-200.6500000000000057
 21
0.0
 31
0.0
  0
LINE
  5
1EE
  8
B
 62
     0
 10
-198.1500000000000057
 20
0.0
 30
0.0
 11
-198.1500000000000057
 21
-2.5
 31
0.0
  0
LINE
  5
1EF
  8
B
 62
     0
 10
-198.1500000000000057
 20
0.0
 30
0.0
 11
-195.6500000000000057
 21
0.0
 31
0.0
  0
LINE
  5
1F0
  8
B
 62
     0
 10
-200.6500000000000057
 20
0.0
 30
0.0
 11
-202.1500000000000057
 21
0.0
 31
0.0
  0
LINE
  5
1F1
  8
B
 62
     0
 10
-198.1500000000000057
 20
-2.5
 30
0.0
 11
-198.1500000000000057
 21
-4.0
 31
0.0
  0
LINE
  5
1F2
  8
B
 62
     0
 10
198.1500000000000057
 20
0.0
 30
0.0
 11
198.1500000000000057
 21
2.5
 31
0.0
  0
LINE
  5
1F3
  8
B
 62
     0
 10
198.1500000000000057
 20
0.0
 30
0.0
 11
195.6500000000000057
 21
0.0
 31
0.0
  0
LINE
  5
1F4
  8
B
 62
     0
 10
198.1500000000000057
 20
0.0
 30
0.0
 11
198.1500000000000057
 21
-2.5
 31
0.0
  0
LINE
  5
1F5
  8
B
 62
     0
 10
198.1500000000000057
 20
0.0
 30
0.0
 11
200.6500000000000057
 21
0.0
 31
0.0
  0
LINE
  5
1F6
  8
B
 62
     0
 10
198.1500000000000057
 20
-2.5
 30
0.0
 11
198.1500000000000057
 21
-4.0
 31
0.0
  0
LINE
  5
1F7
  8
B
 62
     0
 10
396.3000000000000114
 20
0.0
 30
0.0
 11
396.3000000000000114
 21
2.5
 31
0.0
  0
LINE
  5
1F8
  8
B
 62
     0
 10
396.3000000000000114
 20
0.0
 30
0.0
 11
393.8000000000000114
 21
0.0
 31
0.0
  0
LINE
  5
1F9
  8
B
 62
     0
 10
396.3000000000000114
 20
0.0
 30
0.0
 11
396.3000000000000114
 21
-2.5
 31
0.0
  0
LINE
  5
1FA
  8
B
 62
     0
 10
396.3000000000000114
 20
0.0
 30
0.0
 11
398.8000000000000114
 21
0.0
 31
0.0
  0
LINE
  5
1FB
  8
B
 62
     0
 10
396.3000000000000114
 20
-2.5
 30
0.0
 11
396.3000000000000114
 21
-4.0
 31
0.0
  0
LINE
  5
1FC
  8
B
 62
     0
 10
398.8000000000000114
 20
0.0
 30
0.0
 11
400.3000000000000114
 21
0.0
 31
0.0
  0
LINE
  5
1FD
  8
B
 62
     0
 10
-198.1500000000000057
 20
173.8499999999999943
 30
0.0
 11
-198.1500000000000057
 21
176.3499999999999943
 31
0.0
  0
LINE
  5
1FE
  8
B
 62
     0
 10
-198.1500000000000057
 20
173.8499999999999943
 30
0.0
 11
-200.6500000000000057
 21
173.8499999999999943
 31
0.0
  0
LINE
  5
1FF
  8
B
 62
     0
 10
-198.1500000000000057
 20
173.8499999999999943
 30
0.0
 11
-198.1500000000000057
 21
171.3499999999999943
 31
0.0
  0
LINE
  5
200
  8
B
 62
     0
 10
-198.1500000000000057
 20
173.8499999999999943
 30
0.0
 11
-195.6500000000000057
 21
173.8499999999999943
 31
0.0
  0
LINE
  5
201
  8
B
 62
     0
 10
-200.6500000000000057
 20
173.8499999999999943
 30
0.0
 11
-202.1500000000000057
 21
173.8499999999999943
 31
0.0
  0
LINE
  5
202
  8
B
 62
     0
 10
0.0
 20
173.8499999999999943
 30
0.0
 11
0.0
 21
176.3499999999999943
 31
0.0
  0
LINE
  5
203
  8
B
 62
     0
 10
0.0
 20
173.8499999999999943
 30
0.0
 11
-2.5
 21
173.8499999999999943
 31
0.0
  0
LINE
  5
204
  8
B
 62
     0
 10
0.0
 20
173.8499999999999943
 30
0.0
 11
0.0
 21
171.3499999999999943
 31
0.0
  0
LINE
  5
205
  8
B
 62
     0
 10
0.0
 20
173.8499999999999943
 30
0.0
 11
2.5
 21
173.8499999999999943
 31
0.0
  0
LINE
  5
206
  8
B
 62
     0
 10
198.1500000000000057
 20
173.8499999999999943
 30
0.0
 11
198.1500000000000057
 21
176.3499999999999943
 31
0.0
  0
LINE
  5
207
  8
B
 62
     0
 10
198.1500000000000057
 20
173.8499999999999943
 30
0.0
 11
195.6500000000000057
 21
173.8499999999999943
 31
0.0
  0
LINE
  5
208
  8
B
 62
     0
 10
198.1500000000000057
 20
173.8499999999999943
 30
0.0
 11
198.1500000000000057
 21
171.3499999999999943
 31
0.0
  0
LINE
  5
209
  8
B
 62
     0
 10
198.1500000000000057
 20
173.8499999999999943
 30
0.0
 11
200.6500000000000057
 21
173.8499999999999943
 31
0.0
  0
LINE
  5
20A
  8
B
 62
     0
 10
396.3000000000000114
 20
173.8499999999999943
 30
0.0
 11
396.3000000000000114
 21
176.3499999999999943
 31
0.0
  0
LINE
  5
20B
  8
B
 62
     0
 10
396.3000000000000114
 20
173.8499999999999943
 30
0.0
 11
393.8000000000000114
 21
173.8499999999999943
 31
0.0
  0
LINE
  5
20C
  8
B
 62
     0
 10
396.3000000000000114
 20
173.8499999999999943
 30
0.0
 11
396.3000000000000114
 21
171.3499999999999943
 31
0.0
  0
LINE
  5
20D
  8
B
 62
     0
 10
396.3000000000000114
 20
173.8499999999999943
 30
0.0
 11
398.8000000000000114
 21
173.8499999999999943
 31
0.0
  0
LINE
  5
20E
  8
B
 62
     0
 10
398.8000000000000114
 20
173.8499999999999943
 30
0.0
 11
400.3000000000000114
 21
173.8499999999999943
 31
0.0
  0
LINE
  5
20F
  8
B
 62
     0
 10
-198.1500000000000057
 20
347.6999999999999886
 30
0.0
 11
-198.1500000000000057
 21
350.1999999999999886
 31
0.0
  0
LINE
  5
210
  8
B
 62
     0
 10
-198.1500000000000057
 20
347.6999999999999886
 30
0.0
 11
-200.6500000000000057
 21
347.6999999999999886
 31
0.0
  0
LINE
  5
211
  8
B
 62
     0
 10
-198.1500000000000057
 20
347.6999999999999886
 30
0.0
 11
-198.1500000000000057
 21
345.1999999999999886
 31
0.0
  0
LINE
  5
212
  8
B
 62
     0
 10
-198.1500000000000057
 20
347.6999999999999886
 30
0.0
 11
-195.6500000000000057
 21
347.6999999999999886
 31
0.0
  0
LINE
  5
213
  8
B
 62
     0
 10
-200.6500000000000057
 20
347.6999999999999886
 30
0.0
 11
-202.1500000000000057
 21
347.6999999999999886
 31
0.0
  0
LINE
  5
214
  8
B
 62
     0
 10
0.0
 20
347.6999999999999886
 30
0.0
 11
0.0
 21
350.1999999999999886
 31
0.0
  0
LINE
  5
215
  8
B
 62
     0
 10
0.0
 20
347.6999999999999886
 30
0.0
 11
-2.5
 21
347.6999999999999886
 31
0.0
  0
LINE
  5
216
  8
B
 62
     0
 10
0.0
 20
347.6999999999999886
 30
0.0
 11
0.0
 21
345.1999999999999886
 31
0.0
  0
LINE
  5
217
  8
B
 62
     0
 10
0.0
 20
347.6999999999999886
 30
0.0
 11
2.5
 21
347.6999999999999886
 31
0.0
  0
LINE
  5
218
  8
B
 62
     0
 10
198.1500000000000057
 20
347.6999999999999886
 30
0.0
 11
198.1500000000000057
 21
350.1999999999999886
 31
0.0
  0
LINE
  5
219
  8
B
 62
     0
 10
198.1500000000000057
 20
347.6999999999999886
 30
0.0
 11
195.6500000000000057
 21
347.6999999999999886
 31
0.0
  0
LINE
  5
21A
  8
B
 62
     0
 10
198.1500000000000057
 20
347.6999999999999886
 30
0.0
 11
198.1500000000000057
 21
345.1999999999999886
 31
0.0
  0
LINE
  5
21B
  8
B
 62
     0
 10
198.1500000000000057
 20
347.6999999999999886
 30
0.0
 11
200.6500000000000057
 21
347.6999999999999886
 31
0.0
  0
LINE
  5
21C
  8
B
 62
     0
 10
396.3000000000000114
 20
347.6999999999999886
 30
0.0
 11
396.3000000000000114
 21
350.1999999999999886
 31
0.0
  0
LINE
  5
21D
  8
B
 62
     0
 10
396.3000000000000114
 20
347.6999999999999886
 30
0.0
 11
393.8000000000000114
 21
347.6999999999999886
 31
0.0
  0
LINE
  5
21E
  8
B
 62
     0
 10
396.3000000000000114
 20
347.6999999999999886
 30
0.0
 11
396.3000000000000114
 21
345.1999999999999886
 31
0.0
  0
LINE
  5
21F
  8
B
 62
     0
 10
396.3000000000000114
 20
347.6999999999999886
 30
0.0
 11
398.8000000000000114
 21
347.6999999999999886
 31
0.0
  0
LINE
  5
220
  8
B
 62
     0
 10
398.8000000000000114
 20
347.6999999999999886
 30
0.0
 11
400.3000000000000114
 21
347.6999999999999886
 31
0.0
  0
LINE
  5
221
  8
B
 62
     0
 10
-198.1500000000000057
 20
521.5499999999999545
 30
0.0
 11
-198.1500000000000057
 21
524.0499999999999545
 31
0.0
  0
LINE
  5
222
  8
B
 62
     0
 10
-198.1500000000000057
 20
521.5499999999999545
 30
0.0
 11
-200.6500000000000057
 21
521.5499999999999545
 31
0.0
  0
LINE
  5
223
  8
B
 62
     0
 10
-198.1500000000000057
 20
521.5499999999999545
 30
0.0
 11
-198.1500000000000057
 21
519.0499999999999545
 31
0.0
  0
LINE
  5
224
  8
B
 62
     0
 10
-198.1500000000000057
 20
521.5499999999999545
 30
0.0
 11
-195.6500000000000057
 21
521.5499999999999545
 31
0.0
  0
LINE
  5
225
  8
B
 62
     0
 10
-198.1500000000000057
 20
524.0499999999999545
 30
0.0
 11
-198.1500000000000057
 21
525.5499999999999545
 31
0.0
  0
LINE
  5
226
  8
B
 62
     0
 10
-200.6500000000000057
 20
521.5499999999999545
 30
0.0
 11
-202.1500000000000057
 21
521.5499999999999545
 31
0.0
  0
LINE
  5
227
  8
B
 62
     0
 10
0.0
 20
521.5499999999999545
 30
0.0
 11
0.0
 21
524.0499999999999545
 31
0.0
  0
LINE
  5
228
  8
B
 62
     0
 10
0.0
 20
521.5499999999999545
 30
0.0
 11
-2.5
 21
521.5499999999999545
 31
0.0
  0
LINE
  5
229
  8
B
 62
     0
 10
0.0
 20
521.5499999999999545
 30
0.0
 11
0.0
 21
519.0499999999999545
 31
0.0
  0
LINE
  5
22A
  8
B
 62
     0
 10
0.0
 20
521.5499999999999545
 30
0.0
 11
2.5
 21
521.5499999999999545
 31
0.0
  0
LINE
  5
22B
  8
B
 62
     0
 10
0.0
 20
524.0499999999999545
 30
0.0
 11
0.0
 21
525.5499999999999545
 31
0.0
  0
LINE
  5
22C
  8
B
 62
     0
 10
198.1500000000000057
 20
521.5499999999999545
 30
0.0
 11
198.1500000000000057
 21
524.0499999999999545
 31
0.0
  0
LINE
  5
22D
  8
B
 62
     0
 10
198.1500000000000057
 20
521.5499999999999545
 30
0.0
 11
195.6500000000000057
 21
521.5499999999999545
 31
0.0
  0
LINE
  5
22E
  8
B
 62
     0
 10
198.1500000000000057
 20
521.5499999999999545
 30
0.0
 11
198.1500000000000057
 21
519.0499999999999545
 31
0.0
  0
LINE
  5
22F
  8
B
 62
     0
 10
198.1500000000000057
 20
521.5499999999999545
 30
0.0
 11
200.6500000000000057
 21
521.5499999999999545
 31
0.0
  0
LINE
  5
230
  8
B
 62
     0
 10
198.1500000000000057
 20
524.0499999999999545
 30
0.0
 11
198.1500000000000057
 21
525.5499999999999545
 31
0.0
  0
LINE
  5
231
  8
B
 62
     0
 10
396.3000000000000114
 20
521.5499999999999545
 30
0.0
 11
396.3000000000000114
 21
524.0499999999999545
 31
0.0
  0
LINE
  5
232
  8
B
 62
     0
 10
396.3000000000000114
 20
521.5499999999999545
 30
0.0
 11
393.8000000000000114
 21
521.5499999999999545
 31
0.0
  0
LINE
  5
233
  8
B
 62
     0
 10
396.3000000000000114
 20
521.5499999999999545
 30
0.0
 11
396.3000000000000114
 21
519.0499999999999545
 31
0.0
  0
LINE
  5
234
  8
B
 62
     0
 10
396.3000000000000114
 20
521.5499999999999545
 30
0.0
 11
398.8000000000000114
 21
521.5499999999999545
 31
0.0
  0
LINE
  5
235
  8
B
 62
     0
 10
396.3000000000000114
 20
524.0499999999999545
 30
0.0
 11
396.3000000000000114
 21
525.5499999999999545
 31
0.0
  0
LINE
  5
236
  8
B
 62
     0
 10
398.8000000000000114
 20
521.5499999999999545
 30
0.0
 11
400.3000000000000114
 21
521.5499999999999545
 31
0.0
  0
LINE
  5
237
  8
B
 62
     0
 10
-193.1500000000000057
 20
0.0
 30
0.0
 11
-5.0
 21
0.0
 31
0.0
  0
LINE
  5
238
  8
B
 62
     0
 10
5.0
 20
0.0
 30
0.0
 11
193.1500000000000057
 21
0.0
 31
0.0
  0
LINE
  5
239
  8
B
 62
     0
 10
203.1500000000000057
 20
0.0
 30
0.0
 11
391.3000000000000114
 21
0.0
 31
0.0
  0
LINE
  5
23A
  8
B
 62
     0
 10
-193.1500000000000057
 20
173.8499999999999943
 30
0.0
 11
-5.0
 21
173.8499999999999943
 31
0.0
  0
LINE
  5
23B
  8
B
 62
     0
 10
5.0
 20
173.8499999999999943
 30
0.0
 11
193.1500000000000057
 21
173.8499999999999943
 31
0.0
  0
LINE
  5
23C
  8
B
 62
     0
 10
203.1500000000000057
 20
173.8499999999999943
 30
0.0
 11
391.3000000000000114
 21
173.8499999999999943
 31
0.0
  0
LINE
  5
23D
  8
B
 62
     0
 10
-193.1500000000000057
 20
347.6999999999999886
 30
0.0
 11
-5.0
 21
347.6999999999999886
 31
0.0
  0
LINE
  5
23E
  8
B
 62
     0
 10
5.0
 20
347.6999999999999886
 30
0.0
 11
193.1500000000000057
 21
347.6999999999999886
 31
0.0
  0
LINE
  5
23F
  8
B
 62
     0
 10
203.1500000000000057
 20
347.6999999999999886
 30
0.0
 11
391.3000000000000114
 21
347.6999999999999886
 31
0.0
  0
LINE
  5
240
  8
B
 62
     0
 10
-193.1500000000000057
 20
521.5499999999999545
 30
0.0
 11
-5.0
 21
521.5499999999999545
 31
0.0
  0
LINE
  5
241
  8
B
 62
     0
 10
5.0
 20
521.5499999999999545
 30
0.0
 11
193.1500000000000057
 21
521.5499999999999545
 31
0.0
  0
LINE
  5
242
  8
B
 62
     0
 10
203.1500000000000057
 20
521.5499999999999545
 30
0.0
 11
391.3000000000000114
 21
521.5499999999999545
 31
0.0
  0
LINE
  5
243
  8
B
 62
     0
 10
-198.1500000000000057
 20
5.0
 30
0.0
 11
-198.1500000000000057
 21
168.8499999999999943
 31
0.0
  0
LINE
  5
244
  8
B
 62
     0
 10
-198.1500000000000057
 20
178.8499999999999943
 30
0.0
 11
-198.1500000000000057
 21
342.6999999999999886
 31
0.0
  0
LINE
  5
245
  8
B
 62
     0
 10
-198.1500000000000057
 20
352.6999999999999886
 30
0.0
 11
-198.1500000000000057
 21
516.5499999999999545
 31
0.0
  0
LINE
  5
246
  8
B
 62
     0
 10
0.0
 20
5.0
 30
0.0
 11
0.0
 21
168.8499999999999943
 31
0.0
  0
LINE
  5
247
  8
B
 62
     0
 10
0.0
 20
178.8499999999999943
 30
0.0
 11
0.0
 21
342.6999999999999886
 31
0.0
  0
LINE
  5
248
  8
B
 62
     0
 10
0.0
 20
352.6999999999999886
 30
0.0
 11
0.0
 21
516.5499999999999545
 31
0.0
  0
LINE
  5
249
  8
B
 62
     0
 10
198.1500000000000057
 20
5.0
 30
0.0
 11
198.1500000000000057
 21
168.8499999999999943
 31
0.0
  0
LINE
  5
24A
  8
B
 62
     0
 10
198.1500000000000057
 20
178.8499999999999943
 30
0.0
 11
198.1500000000000057
 21
342.6999999999999886
 31
0.0
  0
LINE
  5
24B
  8
B
 62
     0
 10
198.1500000000000057
 20
352.6999999999999886
 30
0.0
 11
198.1500000000000057
 21
516.5499999999999545
 31
0.0
  0
LINE
  5
24C
  8
B
 62
     0
 10
396.3000000000000114
 20
5.0
 30
0.0
 11
396.3000000000000114
 21
168.8499999999999943
 31
0.0
  0
LINE
  5
24D
  8
B
 62
     0
 10
396.3000000000000114
 20
178.8499999999999943
 30
0.0
 11
396.3000000000000114
 21
342.6999999999999886
 31
0.0
  0
LINE
  5
24E
  8
B
 62
     0
 10
396.3000000000000114
 20
352.6999999999999886
 30
0.0
 11
396.3000000000000114
 21
516.5499999999999545
 31
0.0
  0
ENDBLK
  5
1E6
  8
0
  0
BLOCK
  8
0
  2
SW_CENTERMARKSYMBOL_2
 70
     0
 10
0.0
 20
0.0
 30
0.0
  3
SW_CENTERMARKSYMBOL_2
  1

  0
LINE
  5
253
  8
B
 62
     0
 10
0.0
 20
0.0
 30
0.0
 11
0.0
 21
2.5
 31
0.0
  0
LINE
  5
254
  8
B
 62
     0
 10
0.0
 20
0.0
 30
0.0
 11
-2.5
 21
0.0
 31
0.0
  0
LINE
  5
255
  8
B
 62
     0
 10
0.0
 20
0.0
 30
0.0
 11
0.0
 21
-2.5
 31
0.0
  0
LINE
  5
256
  8
B
 62
     0
 10
0.0
 20
0.0
 30
0.0
 11
2.5
 21
0.0
 31
0.0
  0
LINE
  5
257
  8
B
 62
     0
 10
0.0
 20
-2.5
 30
0.0
 11
0.0
 21
-4.0
 31
0.0
  0
LINE
  5
258
  8
B
 62
     0
 10
-198.1500000000000057
 20
0.0
 30
0.0
 11
-198.1500000000000057
 21
2.5
 31
0.0
  0
LINE
  5
259
  8
B
 62
     0
 10
-198.1500000000000057
 20
0.0
 30
0.0
 11
-200.6500000000000057
 21
0.0
 31
0.0
  0
LINE
  5
25A
  8
B
 62
     0
 10
-198.1500000000000057
 20
0.0
 30
0.0
 11
-198.1500000000000057
 21
-2.5
 31
0.0
  0
LINE
  5
25B
  8
B
 62
     0
 10
-198.1500000000000057
 20
0.0
 30
0.0
 11
-195.6500000000000057
 21
0.0
 31
0.0
  0
LINE
  5
25C
  8
B
 62
     0
 10
-200.6500000000000057
 20
0.0
 30
0.0
 11
-202.1500000000000057
 21
0.0
 31
0.0
  0
LINE
  5
25D
  8
B
 62
     0
 10
-198.1500000000000057
 20
-2.5
 30
0.0
 11
-198.1500000000000057
 21
-4.0
 31
0.0
  0
LINE
  5
25E
  8
B
 62
     0
 10
198.1500000000000057
 20
0.0
 30
0.0
 11
198.1500000000000057
 21
2.5
 31
0.0
  0
LINE
  5
25F
  8
B
 62
     0
 10
198.1500000000000057
 20
0.0
 30
0.0
 11
195.6500000000000057
 21
0.0
 31
0.0
  0
LINE
  5
260
  8
B
 62
     0
 10
198.1500000000000057
 20
0.0
 30
0.0
 11
198.1500000000000057
 21
-2.5
 31
0.0
  0
LINE
  5
261
  8
B
 62
     0
 10
198.1500000000000057
 20
0.0
 30
0.0
 11
200.6500000000000057
 21
0.0
 31
0.0
  0
LINE
  5
262
  8
B
 62
     0
 10
198.1500000000000057
 20
-2.5
 30
0.0
 11
198.1500000000000057
 21
-4.0
 31
0.0
  0
LINE
  5
263
  8
B
 62
     0
 10
396.3000000000000114
 20
0.0
 30
0.0
 11
396.3000000000000114
 21
2.5
 31
0.0
  0
LINE
  5
264
  8
B
 62
     0
 10
396.3000000000000114
 20
0.0
 30
0.0
 11
393.8000000000000114
 21
0.0
 31
0.0
  0
LINE
  5
265
  8
B
 62
     0
 10
396.3000000000000114
 20
0.0
 30
0.0
 11
396.3000000000000114
 21
-2.5
 31
0.0
  0
LINE
  5
266
  8
B
 62
     0
 10
396.3000000000000114
 20
0.0
 30
0.0
 11
398.8000000000000114
 21
0.0
 31
0.0
  0
LINE
  5
267
  8
B
 62
     0
 10
396.3000000000000114
 20
-2.5
 30
0.0
 11
396.3000000000000114
 21
-4.0
 31
0.0
  0
LINE
  5
268
  8
B
 62
     0
 10
398.8000000000000114
 20
0.0
 30
0.0
 11
400.3000000000000114
 21
0.0
 31
0.0
  0
LINE
  5
269
  8
B
 62
     0
 10
-198.1500000000000057
 20
173.8499999999999943
 30
0.0
 11
-198.1500000000000057
 21
176.3499999999999943
 31
0.0
  0
LINE
  5
26A
  8
B
 62
     0
 10
-198.1500000000000057
 20
173.8499999999999943
 30
0.0
 11
-200.6500000000000057
 21
173.8499999999999943
 31
0.0
  0
LINE
  5
26B
  8
B
 62
     0
 10
-198.1500000000000057
 20
173.8499999999999943
 30
0.0
 11
-198.1500000000000057
 21
171.3499999999999943
 31
0.0
  0
LINE
  5
26C
  8
B
 62
     0
 10
-198.1500000000000057
 20
173.8499999999999943
 30
0.0
 11
-195.6500000000000057
 21
173.8499999999999943
 31
0.0
  0
LINE
  5
26D
  8
B
 62
     0
 10
-200.6500000000000057
 20
173.8499999999999943
 30
0.0
 11
-202.1500000000000057
 21
173.8499999999999943
 31
0.0
  0
LINE
  5
26E
  8
B
 62
     0
 10
0.0
 20
173.8499999999999943
 30
0.0
 11
0.0
 21
176.3499999999999943
 31
0.0
  0
LINE
  5
26F
  8
B
 62
     0
 10
0.0
 20
173.8499999999999943
 30
0.0
 11
-2.5
 21
173.8499999999999943
 31
0.0
  0
LINE
  5
270
  8
B
 62
     0
 10
0.0
 20
173.8499999999999943
 30
0.0
 11
0.0
 21
171.3499999999999943
 31
0.0
  0
LINE
  5
271
  8
B
 62
     0
 10
0.0
 20
173.8499999999999943
 30
0.0
 11
2.5
 21
173.8499999999999943
 31
0.0
  0
LINE
  5
272
  8
B
 62
     0
 10
198.1500000000000057
 20
173.8499999999999943
 30
0.0
 11
198.1500000000000057
 21
176.3499999999999943
 31
0.0
  0
LINE
  5
273
  8
B
 62
     0
 10
198.1500000000000057
 20
173.8499999999999943
 30
0.0
 11
195.6500000000000057
 21
173.8499999999999943
 31
0.0
  0
LINE
  5
274
  8
B
 62
     0
 10
198.1500000000000057
 20
173.8499999999999943
 30
0.0
 11
198.1500000000000057
 21
171.3499999999999943
 31
0.0
  0
LINE
  5
275
  8
B
 62
     0
 10
198.1500000000000057
 20
173.8499999999999943
 30
0.0
 11
200.6500000000000057
 21
173.8499999999999943
 31
0.0
  0
LINE
  5
276
  8
B
 62
     0
 10
396.3000000000000114
 20
173.8499999999999943
 30
0.0
 11
396.3000000000000114
 21
176.3499999999999943
 31
0.0
  0
LINE
  5
277
  8
B
 62
     0
 10
396.3000000000000114
 20
173.8499999999999943
 30
0.0
 11
393.8000000000000114
 21
173.8499999999999943
 31
0.0
  0
LINE
  5
278
  8
B
 62
     0
 10
396.3000000000000114
 20
173.8499999999999943
 30
0.0
 11
396.3000000000000114
 21
171.3499999999999943
 31
0.0
  0
LINE
  5
279
  8
B
 62
     0
 10
396.3000000000000114
 20
173.8499999999999943
 30
0.0
 11
398.8000000000000114
 21
173.8499999999999943
 31
0.0
  0
LINE
  5
27A
  8
B
 62
     0
 10
398.8000000000000114
 20
173.8499999999999943
 30
0.0
 11
400.3000000000000114
 21
173.8499999999999943
 31
0.0
  0
LINE
  5
27B
  8
B
 62
     0
 10
-198.1500000000000057
 20
347.6999999999999886
 30
0.0
 11
-198.1500000000000057
 21
350.1999999999999886
 31
0.0
  0
LINE
  5
27C
  8
B
 62
     0
 10
-198.1500000000000057
 20
347.6999999999999886
 30
0.0
 11
-200.6500000000000057
 21
347.6999999999999886
 31
0.0
  0
LINE
  5
27D
  8
B
 62
     0
 10
-198.1500000000000057
 20
347.6999999999999886
 30
0.0
 11
-198.1500000000000057
 21
345.1999999999999886
 31
0.0
  0
LINE
  5
27E
  8
B
 62
     0
 10
-198.1500000000000057
 20
347.6999999999999886
 30
0.0
 11
-195.6500000000000057
 21
347.6999999999999886
 31
0.0
  0
LINE
  5
27F
  8
B
 62
     0
 10
-200.6500000000000057
 20
347.6999999999999886
 30
0.0
 11
-202.1500000000000057
 21
347.6999999999999886
 31
0.0
  0
LINE
  5
280
  8
B
 62
     0
 10
0.0
 20
347.6999999999999886
 30
0.0
 11
0.0
 21
350.1999999999999886
 31
0.0
  0
LINE
  5
281
  8
B
 62
     0
 10
0.0
 20
347.6999999999999886
 30
0.0
 11
-2.5
 21
347.6999999999999886
 31
0.0
  0
LINE
  5
282
  8
B
 62
     0
 10
0.0
 20
347.6999999999999886
 30
0.0
 11
0.0
 21
345.1999999999999886
 31
0.0
  0
LINE
  5
283
  8
B
 62
     0
 10
0.0
 20
347.6999999999999886
 30
0.0
 11
2.5
 21
347.6999999999999886
 31
0.0
  0
LINE
  5
284
  8
B
 62
     0
 10
198.1500000000000057
 20
347.6999999999999886
 30
0.0
 11
198.1500000000000057
 21
350.1999999999999886
 31
0.0
  0
LINE
  5
285
  8
B
 62
     0
 10
198.1500000000000057
 20
347.6999999999999886
 30
0.0
 11
195.6500000000000057
 21
347.6999999999999886
 31
0.0
  0
LINE
  5
286
  8
B
 62
     0
 10
198.1500000000000057
 20
347.6999999999999886
 30
0.0
 11
198.1500000000000057
 21
345.1999999999999886
 31
0.0
  0
LINE
  5
287
  8
B
 62
     0
 10
198.1500000000000057
 20
347.6999999999999886
 30
0.0
 11
200.6500000000000057
 21
347.6999999999999886
 31
0.0
  0
LINE
  5
288
  8
B
 62
     0
 10
396.3000000000000114
 20
347.6999999999999886
 30
0.0
 11
396.3000000000000114
 21
350.1999999999999886
 31
0.0
  0
LINE
  5
289
  8
B
 62
     0
 10
396.3000000000000114
 20
347.6999999999999886
 30
0.0
 11
393.8000000000000114
 21
347.6999999999999886
 31
0.0
  0
LINE
  5
28A
  8
B
 62
     0
 10
396.3000000000000114
 20
347.6999999999999886
 30
0.0
 11
396.3000000000000114
 21
345.1999999999999886
 31
0.0
  0
LINE
  5
28B
  8
B
 62
     0
 10
396.3000000000000114
 20
347.6999999999999886
 30
0.0
 11
398.8000000000000114
 21
347.6999999999999886
 31
0.0
  0
LINE
  5
28C
  8
B
 62
     0
 10
398.8000000000000114
 20
347.6999999999999886
 30
0.0
 11
400.3000000000000114
 21
347.6999999999999886
 31
0.0
  0
LINE
  5
28D
  8
B
 62
     0
 10
-198.1500000000000057
 20
521.5499999999999545
 30
0.0
 11
-198.1500000000000057
 21
524.0499999999999545
 31
0.0
  0
LINE
  5
28E
  8
B
 62
     0
 10
-198.1500000000000057
 20
521.5499999999999545
 30
0.0
 11
-200.6500000000000057
 21
521.5499999999999545
 31
0.0
  0
LINE
  5
28F
  8
B
 62
     0
 10
-198.1500000000000057
 20
521.5499999999999545
 30
0.0
 11
-198.1500000000000057
 21
519.0499999999999545
 31
0.0
  0
LINE
  5
290
  8
B
 62
     0
 10
-198.1500000000000057
 20
521.5499999999999545
 30
0.0
 11
-195.6500000000000057
 21
521.5499999999999545
 31
0.0
  0
LINE
  5
291
  8
B
 62
     0
 10
-198.1500000000000057
 20
524.0499999999999545
 30
0.0
 11
-198.1500000000000057
 21
525.5499999999999545
 31
0.0
  0
LINE
  5
292
  8
B
 62
     0
 10
-200.6500000000000057
 20
521.5499999999999545
 30
0.0
 11
-202.1500000000000057
 21
521.5499999999999545
 31
0.0
  0
LINE
  5
293
  8
B
 62
     0
 10
0.0
 20
521.5499999999999545
 30
0.0
 11
0.0
 21
524.0499999999999545
 31
0.0
  0
LINE
  5
294
  8
B
 62
     0
 10
0.0
 20
521.5499999999999545
 30
0.0
 11
-2.5
 21
521.5499999999999545
 31
0.0
  0
LINE
  5
295
  8
B
 62
     0
 10
0.0
 20
521.5499999999999545
 30
0.0
 11
0.0
 21
519.0499999999999545
 31
0.0
  0
LINE
  5
296
  8
B
 62
     0
 10
0.0
 20
521.5499999999999545
 30
0.0
 11
2.5
 21
521.5499999999999545
 31
0.0
  0
LINE
  5
297
  8
B
 62
     0
 10
0.0
 20
524.0499999999999545
 30
0.0
 11
0.0
 21
525.5499999999999545
 31
0.0
  0
LINE
  5
298
  8
B
 62
     0
 10
198.1500000000000057
 20
521.5499999999999545
 30
0.0
 11
198.1500000000000057
 21
524.0499999999999545
 31
0.0
  0
LINE
  5
299
  8
B
 62
     0
 10
198.1500000000000057
 20
521.5499999999999545
 30
0.0
 11
195.6500000000000057
 21
521.5499999999999545
 31
0.0
  0
LINE
  5
29A
  8
B
 62
     0
 10
198.1500000000000057
 20
521.5499999999999545
 30
0.0
 11
198.1500000000000057
 21
519.0499999999999545
 31
0.0
  0
LINE
  5
29B
  8
B
 62
     0
 10
198.1500000000000057
 20
521.5499999999999545
 30
0.0
 11
200.6500000000000057
 21
521.5499999999999545
 31
0.0
  0
LINE
  5
29C
  8
B
 62
     0
 10
198.1500000000000057
 20
524.0499999999999545
 30
0.0
 11
198.1500000000000057
 21
525.5499999999999545
 31
0.0
  0
LINE
  5
29D
  8
B
 62
     0
 10
396.3000000000000114
 20
521.5499999999999545
 30
0.0
 11
396.3000000000000114
 21
524.0499999999999545
 31
0.0
  0
LINE
  5
29E
  8
B
 62
     0
 10
396.3000000000000114
 20
521.5499999999999545
 30
0.0
 11
393.8000000000000114
 21
521.5499999999999545
 31
0.0
  0
LINE
  5
29F
  8
B
 62
     0
 10
396.3000000000000114
 20
521.5499999999999545
 30
0.0
 11
396.3000000000000114
 21
519.0499999999999545
 31
0.0
  0
LINE
  5
2A0
  8
B
 62
     0
 10
396.3000000000000114
 20
521.5499999999999545
 30
0.0
 11
398.8000000000000114
 21
521.5499999999999545
 31
0.0
  0
LINE
  5
2A1
  8
B
 62
     0
 10
396.3000000000000114
 20
524.0499999999999545
 30
0.0
 11
396.3000000000000114
 21
525.5499999999999545
 31
0.0
  0
LINE
  5
2A2
  8
B
 62
     0
 10
398.8000000000000114
 20
521.5499999999999545
 30
0.0
 11
400.3000000000000114
 21
521.5499999999999545
 31
0.0
  0
LINE
  5
2A3
  8
B
 62
     0
 10
-193.1500000000000057
 20
0.0
 30
0.0
 11
-5.0
 21
0.0
 31
0.0
  0
LINE
  5
2A4
  8
B
 62
     0
 10
5.0
 20
0.0
 30
0.0
 11
193.1500000000000057
 21
0.0
 31
0.0
  0
LINE
  5
2A5
  8
B
 62
     0
 10
203.1500000000000057
 20
0.0
 30
0.0
 11
391.3000000000000114
 21
0.0
 31
0.0
  0
LINE
  5
2A6
  8
B
 62
     0
 10
-193.1500000000000057
 20
173.8499999999999943
 30
0.0
 11
-5.0
 21
173.8499999999999943
 31
0.0
  0
LINE
  5
2A7
  8
B
 62
     0
 10
5.0
 20
173.8499999999999943
 30
0.0
 11
193.1500000000000057
 21
173.8499999999999943
 31
0.0
  0
LINE
  5
2A8
  8
B
 62
     0
 10
203.1500000000000057
 20
173.8499999999999943
 30
0.0
 11
391.3000000000000114
 21
173.8499999999999943
 31
0.0
  0
LINE
  5
2A9
  8
B
 62
     0
 10
-193.1500000000000057
 20
347.6999999999999886
 30
0.0
 11
-5.0
 21
347.6999999999999886
 31
0.0
  0
LINE
  5
2AA
  8
B
 62
     0
 10
5.0
 20
347.6999999999999886
 30
0.0
 11
193.1500000000000057
 21
347.6999999999999886
 31
0.0
  0
LINE
  5
2AB
  8
B
 62
     0
 10
203.1500000000000057
 20
347.6999999999999886
 30
0.0
 11
391.3000000000000114
 21
347.6999999999999886
 31
0.0
  0
LINE
  5
2AC
  8
B
 62
     0
 10
-193.1500000000000057
 20
521.5499999999999545
 30
0.0
 11
-5.0
 21
521.5499999999999545
 31
0.0
  0
LINE
  5
2AD
  8
B
 62
     0
 10
5.0
 20
521.5499999999999545
 30
0.0
 11
193.1500000000000057
 21
521.5499999999999545
 31
0.0
  0
LINE
  5
2AE
  8
B
 62
     0
 10
203.1500000000000057
 20
521.5499999999999545
 30
0.0
 11
391.3000000000000114
 21
521.5499999999999545
 31
0.0
  0
LINE
  5
2AF
  8
B
 62
     0
 10
-198.1500000000000057
 20
5.0
 30
0.0
 11
-198.1500000000000057
 21
168.8499999999999943
 31
0.0
  0
LINE
  5
2B0
  8
B
 62
     0
 10
-198.1500000000000057
 20
178.8499999999999943
 30
0.0
 11
-198.1500000000000057
 21
342.6999999999999886
 31
0.0
  0
LINE
  5
2B1
  8
B
 62
     0
 10
-198.1500000000000057
 20
352.6999999999999886
 30
0.0
 11
-198.1500000000000057
 21
516.5499999999999545
 31
0.0
  0
LINE
  5
2B2
  8
B
 62
     0
 10
0.0
 20
5.0
 30
0.0
 11
0.0
 21
168.8499999999999943
 31
0.0
  0
LINE
  5
2B3
  8
B
 62
     0
 10
0.0
 20
178.8499999999999943
 30
0.0
 11
0.0
 21
342.6999999999999886
 31
0.0
  0
LINE
  5
2B4
  8
B
 62
     0
 10
0.0
 20
352.6999999999999886
 30
0.0
 11
0.0
 21
516.5499999999999545
 31
0.0
  0
LINE
  5
2B5
  8
B
 62
     0
 10
198.1500000000000057
 20
5.0
 30
0.0
 11
198.1500000000000057
 21
168.8499999999999943
 31
0.0
  0
LINE
  5
2B6
  8
B
 62
     0
 10
198.1500000000000057
 20
178.8499999999999943
 30
0.0
 11
198.1500000000000057
 21
342.6999999999999886
 31
0.0
  0
LINE
  5
2B7
  8
B
 62
     0
 10
198.1500000000000057
 20
352.6999999999999886
 30
0.0
 11
198.1500000000000057
 21
516.5499999999999545
 31
0.0
  0
LINE
  5
2B8
  8
B
 62
     0
 10
396.3000000000000114
 20
5.0
 30
0.0
 11
396.3000000000000114
 21
168.8499999999999943
 31
0.0
  0
LINE
  5
2B9
  8
B
 62
     0
 10
396.3000000000000114
 20
178.8499999999999943
 30
0.0
 11
396.3000000000000114
 21
342.6999999999999886
 31
0.0
  0
LINE
  5
2BA
  8
B
 62
     0
 10
396.3000000000000114
 20
352.6999999999999886
 30
0.0
 11
396.3000000000000114
 21
516.5499999999999545
 31
0.0
  0
ENDBLK
  5
252
  8
0
  0
BLOCK
  8
0
  2
SW_CENTERMARKSYMBOL_3
 70
     0
 10
0.0
 20
0.0
 30
0.0
  3
SW_CENTERMARKSYMBOL_3
  1

  0
LINE
  5
2BF
  8
B
 62
     0
 10
0.0
 20
0.0
 30
0.0
 11
0.0
 21
2.5
 31
0.0
  0
LINE
  5
2C0
  8
B
 62
     0
 10
0.0
 20
0.0
 30
0.0
 11
-2.5
 21
0.0
 31
0.0
  0
LINE
  5
2C1
  8
B
 62
     0
 10
0.0
 20
0.0
 30
0.0
 11
0.0
 21
-2.5
 31
0.0
  0
LINE
  5
2C2
  8
B
 62
     0
 10
0.0
 20
0.0
 30
0.0
 11
2.5
 21
0.0
 31
0.0
  0
LINE
  5
2C3
  8
B
 62
     0
 10
0.0
 20
-2.5
 30
0.0
 11
0.0
 21
-4.0
 31
0.0
  0
LINE
  5
2C4
  8
B
 62
     0
 10
-198.1500000000000057
 20
0.0
 30
0.0
 11
-198.1500000000000057
 21
2.5
 31
0.0
  0
LINE
  5
2C5
  8
B
 62
     0
 10
-198.1500000000000057
 20
0.0
 30
0.0
 11
-200.6500000000000057
 21
0.0
 31
0.0
  0
LINE
  5
2C6
  8
B
 62
     0
 10
-198.1500000000000057
 20
0.0
 30
0.0
 11
-198.1500000000000057
 21
-2.5
 31
0.0
  0
LINE
  5
2C7
  8
B
 62
     0
 10
-198.1500000000000057
 20
0.0
 30
0.0
 11
-195.6500000000000057
 21
0.0
 31
0.0
  0
LINE
  5
2C8
  8
B
 62
     0
 10
-200.6500000000000057
 20
0.0
 30
0.0
 11
-202.1500000000000057
 21
0.0
 31
0.0
  0
LINE
  5
2C9
  8
B
 62
     0
 10
-198.1500000000000057
 20
-2.5
 30
0.0
 11
-198.1500000000000057
 21
-4.0
 31
0.0
  0
LINE
  5
2CA
  8
B
 62
     0
 10
198.1500000000000057
 20
0.0
 30
0.0
 11
198.1500000000000057
 21
2.5
 31
0.0
  0
LINE
  5
2CB
  8
B
 62
     0
 10
198.1500000000000057
 20
0.0
 30
0.0
 11
195.6500000000000057
 21
0.0
 31
0.0
  0
LINE
  5
2CC
  8
B
 62
     0
 10
198.1500000000000057
 20
0.0
 30
0.0
 11
198.1500000000000057
 21
-2.5
 31
0.0
  0
LINE
  5
2CD
  8
B
 62
     0
 10
198.1500000000000057
 20
0.0
 30
0.0
 11
200.6500000000000057
 21
0.0
 31
0.0
  0
LINE
  5
2CE
  8
B
 62
     0
 10
198.1500000000000057
 20
-2.5
 30
0.0
 11
198.1500000000000057
 21
-4.0
 31
0.0
  0
LINE
  5
2CF
  8
B
 62
     0
 10
396.3000000000000114
 20
0.0
 30
0.0
 11
396.3000000000000114
 21
2.5
 31
0.0
  0
LINE
  5
2D0
  8
B
 62
     0
 10
396.3000000000000114
 20
0.0
 30
0.0
 11
393.8000000000000114
 21
0.0
 31
0.0
  0
LINE
  5
2D1
  8
B
 62
     0
 10
396.3000000000000114
 20
0.0
 30
0.0
 11
396.3000000000000114
 21
-2.5
 31
0.0
  0
LINE
  5
2D2
  8
B
 62
     0
 10
396.3000000000000114
 20
0.0
 30
0.0
 11
398.8000000000000114
 21
0.0
 31
0.0
  0
LINE
  5
2D3
  8
B
 62
     0
 10
396.3000000000000114
 20
-2.5
 30
0.0
 11
396.3000000000000114
 21
-4.0
 31
0.0
  0
LINE
  5
2D4
  8
B
 62
     0
 10
398.8000000000000114
 20
0.0
 30
0.0
 11
400.3000000000000114
 21
0.0
 31
0.0
  0
LINE
  5
2D5
  8
B
 62
     0
 10
-198.1500000000000057
 20
173.8499999999999943
 30
0.0
 11
-198.1500000000000057
 21
176.3499999999999943
 31
0.0
  0
LINE
  5
2D6
  8
B
 62
     0
 10
-198.1500000000000057
 20
173.8499999999999943
 30
0.0
 11
-200.6500000000000057
 21
173.8499999999999943
 31
0.0
  0
LINE
  5
2D7
  8
B
 62
     0
 10
-198.1500000000000057
 20
173.8499999999999943
 30
0.0
 11
-198.1500000000000057
 21
171.3499999999999943
 31
0.0
  0
LINE
  5
2D8
  8
B
 62
     0
 10
-198.1500000000000057
 20
173.8499999999999943
 30
0.0
 11
-195.6500000000000057
 21
173.8499999999999943
 31
0.0
  0
LINE
  5
2D9
  8
B
 62
     0
 10
-200.6500000000000057
 20
173.8499999999999943
 30
0.0
 11
-202.1500000000000057
 21
173.8499999999999943
 31
0.0
  0
LINE
  5
2DA
  8
B
 62
     0
 10
0.0
 20
173.8499999999999943
 30
0.0
 11
0.0
 21
176.3499999999999943
 31
0.0
  0
LINE
  5
2DB
  8
B
 62
     0
 10
0.0
 20
173.8499999999999943
 30
0.0
 11
-2.5
 21
173.8499999999999943
 31
0.0
  0
LINE
  5
2DC
  8
B
 62
     0
 10
0.0
 20
173.8499999999999943
 30
0.0
 11
0.0
 21
171.3499999999999943
 31
0.0
  0
LINE
  5
2DD
  8
B
 62
     0
 10
0.0
 20
173.8499999999999943
 30
0.0
 11
2.5
 21
173.8499999999999943
 31
0.0
  0
LINE
  5
2DE
  8
B
 62
     0
 10
198.1500000000000057
 20
173.8499999999999943
 30
0.0
 11
198.1500000000000057
 21
176.3499999999999943
 31
0.0
  0
LINE
  5
2DF
  8
B
 62
     0
 10
198.1500000000000057
 20
173.8499999999999943
 30
0.0
 11
195.6500000000000057
 21
173.8499999999999943
 31
0.0
  0
LINE
  5
2E0
  8
B
 62
     0
 10
198.1500000000000057
 20
173.8499999999999943
 30
0.0
 11
198.1500000000000057
 21
171.3499999999999943
 31
0.0
  0
LINE
  5
2E1
  8
B
 62
     0
 10
198.1500000000000057
 20
173.8499999999999943
 30
0.0
 11
200.6500000000000057
 21
173.8499999999999943
 31
0.0
  0
LINE
  5
2E2
  8
B
 62
     0
 10
396.3000000000000114
 20
173.8499999999999943
 30
0.0
 11
396.3000000000000114
 21
176.3499999999999943
 31
0.0
  0
LINE
  5
2E3
  8
B
 62
     0
 10
396.3000000000000114
 20
173.8499999999999943
 30
0.0
 11
393.8000000000000114
 21
173.8499999999999943
 31
0.0
  0
LINE
  5
2E4
  8
B
 62
     0
 10
396.3000000000000114
 20
173.8499999999999943
 30
0.0
 11
396.3000000000000114
 21
171.3499999999999943
 31
0.0
  0
LINE
  5
2E5
  8
B
 62
     0
 10
396.3000000000000114
 20
173.8499999999999943
 30
0.0
 11
398.8000000000000114
 21
173.8499999999999943
 31
0.0
  0
LINE
  5
2E6
  8
B
 62
     0
 10
398.8000000000000114
 20
173.8499999999999943
 30
0.0
 11
400.3000000000000114
 21
173.8499999999999943
 31
0.0
  0
LINE
  5
2E7
  8
B
 62
     0
 10
-198.1500000000000057
 20
347.6999999999999886
 30
0.0
 11
-198.1500000000000057
 21
350.1999999999999886
 31
0.0
  0
LINE
  5
2E8
  8
B
 62
     0
 10
-198.1500000000000057
 20
347.6999999999999886
 30
0.0
 11
-200.6500000000000057
 21
347.6999999999999886
 31
0.0
  0
LINE
  5
2E9
  8
B
 62
     0
 10
-198.1500000000000057
 20
347.6999999999999886
 30
0.0
 11
-198.1500000000000057
 21
345.1999999999999886
 31
0.0
  0
LINE
  5
2EA
  8
B
 62
     0
 10
-198.1500000000000057
 20
347.6999999999999886
 30
0.0
 11
-195.6500000000000057
 21
347.6999999999999886
 31
0.0
  0
LINE
  5
2EB
  8
B
 62
     0
 10
-200.6500000000000057
 20
347.6999999999999886
 30
0.0
 11
-202.1500000000000057
 21
347.6999999999999886
 31
0.0
  0
LINE
  5
2EC
  8
B
 62
     0
 10
0.0
 20
347.6999999999999886
 30
0.0
 11
0.0
 21
350.1999999999999886
 31
0.0
  0
LINE
  5
2ED
  8
B
 62
     0
 10
0.0
 20
347.6999999999999886
 30
0.0
 11
-2.5
 21
347.6999999999999886
 31
0.0
  0
LINE
  5
2EE
  8
B
 62
     0
 10
0.0
 20
347.6999999999999886
 30
0.0
 11
0.0
 21
345.1999999999999886
 31
0.0
  0
LINE
  5
2EF
  8
B
 62
     0
 10
0.0
 20
347.6999999999999886
 30
0.0
 11
2.5
 21
347.6999999999999886
 31
0.0
  0
LINE
  5
2F0
  8
B
 62
     0
 10
198.1500000000000057
 20
347.6999999999999886
 30
0.0
 11
198.1500000000000057
 21
350.1999999999999886
 31
0.0
  0
LINE
  5
2F1
  8
B
 62
     0
 10
198.1500000000000057
 20
347.6999999999999886
 30
0.0
 11
195.6500000000000057
 21
347.6999999999999886
 31
0.0
  0
LINE
  5
2F2
  8
B
 62
     0
 10
198.1500000000000057
 20
347.6999999999999886
 30
0.0
 11
198.1500000000000057
 21
345.1999999999999886
 31
0.0
  0
LINE
  5
2F3
  8
B
 62
     0
 10
198.1500000000000057
 20
347.6999999999999886
 30
0.0
 11
200.6500000000000057
 21
347.6999999999999886
 31
0.0
  0
LINE
  5
2F4
  8
B
 62
     0
 10
396.3000000000000114
 20
347.6999999999999886
 30
0.0
 11
396.3000000000000114
 21
350.1999999999999886
 31
0.0
  0
LINE
  5
2F5
  8
B
 62
     0
 10
396.3000000000000114
 20
347.6999999999999886
 30
0.0
 11
393.8000000000000114
 21
347.6999999999999886
 31
0.0
  0
LINE
  5
2F6
  8
B
 62
     0
 10
396.3000000000000114
 20
347.6999999999999886
 30
0.0
 11
396.3000000000000114
 21
345.1999999999999886
 31
0.0
  0
LINE
  5
2F7
  8
B
 62
     0
 10
396.3000000000000114
 20
347.6999999999999886
 30
0.0
 11
398.8000000000000114
 21
347.6999999999999886
 31
0.0
  0
LINE
  5
2F8
  8
B
 62
     0
 10
398.8000000000000114
 20
347.6999999999999886
 30
0.0
 11
400.3000000000000114
 21
347.6999999999999886
 31
0.0
  0
LINE
  5
2F9
  8
B
 62
     0
 10
-198.1500000000000057
 20
521.5499999999999545
 30
0.0
 11
-198.1500000000000057
 21
524.0499999999999545
 31
0.0
  0
LINE
  5
2FA
  8
B
 62
     0
 10
-198.1500000000000057
 20
521.5499999999999545
 30
0.0
 11
-200.6500000000000057
 21
521.5499999999999545
 31
0.0
  0
LINE
  5
2FB
  8
B
 62
     0
 10
-198.1500000000000057
 20
521.5499999999999545
 30
0.0
 11
-198.1500000000000057
 21
519.0499999999999545
 31
0.0
  0
LINE
  5
2FC
  8
B
 62
     0
 10
-198.1500000000000057
 20
521.5499999999999545
 30
0.0
 11
-195.6500000000000057
 21
521.5499999999999545
 31
0.0
  0
LINE
  5
2FD
  8
B
 62
     0
 10
-198.1500000000000057
 20
524.0499999999999545
 30
0.0
 11
-198.1500000000000057
 21
525.5499999999999545
 31
0.0
  0
LINE
  5
2FE
  8
B
 62
     0
 10
-200.6500000000000057
 20
521.5499999999999545
 30
0.0
 11
-202.1500000000000057
 21
521.5499999999999545
 31
0.0
  0
LINE
  5
2FF
  8
B
 62
     0
 10
0.0
 20
521.5499999999999545
 30
0.0
 11
0.0
 21
524.0499999999999545
 31
0.0
  0
LINE
  5
300
  8
B
 62
     0
 10
0.0
 20
521.5499999999999545
 30
0.0
 11
-2.5
 21
521.5499999999999545
 31
0.0
  0
LINE
  5
301
  8
B
 62
     0
 10
0.0
 20
521.5499999999999545
 30
0.0
 11
0.0
 21
519.0499999999999545
 31
0.0
  0
LINE
  5
302
  8
B
 62
     0
 10
0.0
 20
521.5499999999999545
 30
0.0
 11
2.5
 21
521.5499999999999545
 31
0.0
  0
LINE
  5
303
  8
B
 62
     0
 10
0.0
 20
524.0499999999999545
 30
0.0
 11
0.0
 21
525.5499999999999545
 31
0.0
  0
LINE
  5
304
  8
B
 62
     0
 10
198.1500000000000057
 20
521.5499999999999545
 30
0.0
 11
198.1500000000000057
 21
524.0499999999999545
 31
0.0
  0
LINE
  5
305
  8
B
 62
     0
 10
198.1500000000000057
 20
521.5499999999999545
 30
0.0
 11
195.6500000000000057
 21
521.5499999999999545
 31
0.0
  0
LINE
  5
306
  8
B
 62
     0
 10
198.1500000000000057
 20
521.5499999999999545
 30
0.0
 11
198.1500000000000057
 21
519.0499999999999545
 31
0.0
  0
LINE
  5
307
  8
B
 62
     0
 10
198.1500000000000057
 20
521.5499999999999545
 30
0.0
 11
200.6500000000000057
 21
521.5499999999999545
 31
0.0
  0
LINE
  5
308
  8
B
 62
     0
 10
198.1500000000000057
 20
524.0499999999999545
 30
0.0
 11
198.1500000000000057
 21
525.5499999999999545
 31
0.0
  0
LINE
  5
309
  8
B
 62
     0
 10
396.3000000000000114
 20
521.5499999999999545
 30
0.0
 11
396.3000000000000114
 21
524.0499999999999545
 31
0.0
  0
LINE
  5
30A
  8
B
 62
     0
 10
396.3000000000000114
 20
521.5499999999999545
 30
0.0
 11
393.8000000000000114
 21
521.5499999999999545
 31
0.0
  0
LINE
  5
30B
  8
B
 62
     0
 10
396.3000000000000114
 20
521.5499999999999545
 30
0.0
 11
396.3000000000000114
 21
519.0499999999999545
 31
0.0
  0
LINE
  5
30C
  8
B
 62
     0
 10
396.3000000000000114
 20
521.5499999999999545
 30
0.0
 11
398.8000000000000114
 21
521.5499999999999545
 31
0.0
  0
LINE
  5
30D
  8
B
 62
     0
 10
396.3000000000000114
 20
524.0499999999999545
 30
0.0
 11
396.3000000000000114
 21
525.5499999999999545
 31
0.0
  0
LINE
  5
30E
  8
B
 62
     0
 10
398.8000000000000114
 20
521.5499999999999545
 30
0.0
 11
400.3000000000000114
 21
521.5499999999999545
 31
0.0
  0
LINE
  5
30F
  8
B
 62
     0
 10
-193.1500000000000057
 20
0.0
 30
0.0
 11
-5.0
 21
0.0
 31
0.0
  0
LINE
  5
310
  8
B
 62
     0
 10
5.0
 20
0.0
 30
0.0
 11
193.1500000000000057
 21
0.0
 31
0.0
  0
LINE
  5
311
  8
B
 62
     0
 10
203.1500000000000057
 20
0.0
 30
0.0
 11
391.3000000000000114
 21
0.0
 31
0.0
  0
LINE
  5
312
  8
B
 62
     0
 10
-193.1500000000000057
 20
173.8499999999999943
 30
0.0
 11
-5.0
 21
173.8499999999999943
 31
0.0
  0
LINE
  5
313
  8
B
 62
     0
 10
5.0
 20
173.8499999999999943
 30
0.0
 11
193.1500000000000057
 21
173.8499999999999943
 31
0.0
  0
LINE
  5
314
  8
B
 62
     0
 10
203.1500000000000057
 20
173.8499999999999943
 30
0.0
 11
391.3000000000000114
 21
173.8499999999999943
 31
0.0
  0
LINE
  5
315
  8
B
 62
     0
 10
-193.1500000000000057
 20
347.6999999999999886
 30
0.0
 11
-5.0
 21
347.6999999999999886
 31
0.0
  0
LINE
  5
316
  8
B
 62
     0
 10
5.0
 20
347.6999999999999886
 30
0.0
 11
193.1500000000000057
 21
347.6999999999999886
 31
0.0
  0
LINE
  5
317
  8
B
 62
     0
 10
203.1500000000000057
 20
347.6999999999999886
 30
0.0
 11
391.3000000000000114
 21
347.6999999999999886
 31
0.0
  0
LINE
  5
318
  8
B
 62
     0
 10
-193.1500000000000057
 20
521.5499999999999545
 30
0.0
 11
-5.0
 21
521.5499999999999545
 31
0.0
  0
LINE
  5
319
  8
B
 62
     0
 10
5.0
 20
521.5499999999999545
 30
0.0
 11
193.1500000000000057
 21
521.5499999999999545
 31
0.0
  0
LINE
  5
31A
  8
B
 62
     0
 10
203.1500000000000057
 20
521.5499999999999545
 30
0.0
 11
391.3000000000000114
 21
521.5499999999999545
 31
0.0
  0
LINE
  5
31B
  8
B
 62
     0
 10
-198.1500000000000057
 20
5.0
 30
0.0
 11
-198.1500000000000057
 21
168.8499999999999943
 31
0.0
  0
LINE
  5
31C
  8
B
 62
     0
 10
-198.1500000000000057
 20
178.8499999999999943
 30
0.0
 11
-198.1500000000000057
 21
342.6999999999999886
 31
0.0
  0
LINE
  5
31D
  8
B
 62
     0
 10
-198.1500000000000057
 20
352.6999999999999886
 30
0.0
 11
-198.1500000000000057
 21
516.5499999999999545
 31
0.0
  0
LINE
  5
31E
  8
B
 62
     0
 10
0.0
 20
5.0
 30
0.0
 11
0.0
 21
168.8499999999999943
 31
0.0
  0
LINE
  5
31F
  8
B
 62
     0
 10
0.0
 20
178.8499999999999943
 30
0.0
 11
0.0
 21
342.6999999999999886
 31
0.0
  0
LINE
  5
320
  8
B
 62
     0
 10
0.0
 20
352.6999999999999886
 30
0.0
 11
0.0
 21
516.5499999999999545
 31
0.0
  0
LINE
  5
321
  8
B
 62
     0
 10
198.1500000000000057
 20
5.0
 30
0.0
 11
198.1500000000000057
 21
168.8499999999999943
 31
0.0
  0
LINE
  5
322
  8
B
 62
     0
 10
198.1500000000000057
 20
178.8499999999999943
 30
0.0
 11
198.1500000000000057
 21
342.6999999999999886
 31
0.0
  0
LINE
  5
323
  8
B
 62
     0
 10
198.1500000000000057
 20
352.6999999999999886
 30
0.0
 11
198.1500000000000057
 21
516.5499999999999545
 31
0.0
  0
LINE
  5
324
  8
B
 62
     0
 10
396.3000000000000114
 20
5.0
 30
0.0
 11
396.3000000000000114
 21
168.8499999999999943
 31
0.0
  0
LINE
  5
325
  8
B
 62
     0
 10
396.3000000000000114
 20
178.8499999999999943
 30
0.0
 11
396.3000000000000114
 21
342.6999999999999886
 31
0.0
  0
LINE
  5
326
  8
B
 62
     0
 10
396.3000000000000114
 20
352.6999999999999886
 30
0.0
 11
396.3000000000000114
 21
516.5499999999999545
 31
0.0
  0
ENDBLK
  5
2BE
  8
0
  0
BLOCK
  8
0
  2
SW_CENTERMARKSYMBOL_4
 70
     0
 10
0.0
 20
0.0
 30
0.0
  3
SW_CENTERMARKSYMBOL_4
  1

  0
LINE
  5
32B
  8
B
 62
     0
 10
0.0
 20
0.0
 30
0.0
 11
0.0
 21
2.5
 31
0.0
  0
LINE
  5
32C
  8
B
 62
     0
 10
0.0
 20
0.0
 30
0.0
 11
-2.5
 21
0.0
 31
0.0
  0
LINE
  5
32D
  8
B
 62
     0
 10
0.0
 20
0.0
 30
0.0
 11
0.0
 21
-2.5
 31
0.0
  0
LINE
  5
32E
  8
B
 62
     0
 10
0.0
 20
0.0
 30
0.0
 11
2.5
 21
0.0
 31
0.0
  0
LINE
  5
32F
  8
B
 62
     0
 10
0.0
 20
5.0
 30
0.0
 11
0.0
 21
6.5
 31
0.0
  0
LINE
  5
330
  8
B
 62
     0
 10
-5.0
 20
0.0
 30
0.0
 11
-6.5
 21
0.0
 31
0.0
  0
LINE
  5
331
  8
B
 62
     0
 10
0.0
 20
-5.0
 30
0.0
 11
0.0
 21
-6.5
 31
0.0
  0
LINE
  5
332
  8
B
 62
     0
 10
5.0
 20
0.0
 30
0.0
 11
6.5
 21
0.0
 31
0.0
  0
ENDBLK
  5
32A
  8
0
  0
BLOCK
  8
0
  2
SW_CENTERMARKSYMBOL_5
 70
     0
 10
0.0
 20
0.0
 30
0.0
  3
SW_CENTERMARKSYMBOL_5
  1

  0
LINE
  5
337
  8
B
 62
     0
 10
0.0
 20
0.0
 30
0.0
 11
0.0
 21
2.5
 31
0.0
  0
LINE
  5
338
  8
B
 62
     0
 10
0.0
 20
0.0
 30
0.0
 11
-2.5
 21
0.0
 31
0.0
  0
LINE
  5
339
  8
B
 62
     0
 10
0.0
 20
0.0
 30
0.0
 11
0.0
 21
-2.5
 31
0.0
  0
LINE
  5
33A
  8
B
 62
     0
 10
0.0
 20
0.0
 30
0.0
 11
2.5
 21
0.0
 31
0.0
  0
LINE
  5
33B
  8
B
 62
     0
 10
0.0
 20
5.0
 30
0.0
 11
0.0
 21
6.5
 31
0.0
  0
LINE
  5
33C
  8
B
 62
     0
 10
-5.0
 20
0.0
 30
0.0
 11
-6.5
 21
0.0
 31
0.0
  0
LINE
  5
33D
  8
B
 62
     0
 10
0.0
 20
-5.0
 30
0.0
 11
0.0
 21
-6.5
 31
0.0
  0
LINE
  5
33E
  8
B
 62
     0
 10
5.0
 20
0.0
 30
0.0
 11
6.5
 21
0.0
 31
0.0
  0
ENDBLK
  5
336
  8
0
  0
BLOCK
  8
0
  2
SW_CENTERMARKSYMBOL_6
 70
     0
 10
0.0
 20
0.0
 30
0.0
  3
SW_CENTERMARKSYMBOL_6
  1

  0
LINE
  5
343
  8
B
 62
     0
 10
0.0
 20
0.0
 30
0.0
 11
0.0
 21
2.5
 31
0.0
  0
LINE
  5
344
  8
B
 62
     0
 10
0.0
 20
0.0
 30
0.0
 11
-2.5
 21
0.0
 31
0.0
  0
LINE
  5
345
  8
B
 62
     0
 10
0.0
 20
0.0
 30
0.0
 11
0.0
 21
-2.5
 31
0.0
  0
LINE
  5
346
  8
B
 62
     0
 10
0.0
 20
0.0
 30
0.0
 11
2.5
 21
0.0
 31
0.0
  0
LINE
  5
347
  8
B
 62
     0
 10
0.0
 20
5.0
 30
0.0
 11
0.0
 21
6.5
 31
0.0
  0
LINE
  5
348
  8
B
 62
     0
 10
-5.0
 20
0.0
 30
0.0
 11
-6.5
 21
0.0
 31
0.0
  0
LINE
  5
349
  8
B
 62
     0
 10
0.0
 20
-5.0
 30
0.0
 11
0.0
 21
-6.5
 31
0.0
  0
LINE
  5
34A
  8
B
 62
     0
 10
5.0
 20
0.0
 30
0.0
 11
6.5
 21
0.0
 31
0.0
  0
ENDBLK
  5
342
  8
0
  0
BLOCK
  8
0
  2
SW_CENTERMARKSYMBOL_7
 70
     0
 10
0.0
 20
0.0
 30
0.0
  3
SW_CENTERMARKSYMBOL_7
  1

  0
LINE
  5
34F
  8
B
 62
     0
 10
0.0
 20
0.0
 30
0.0
 11
0.0
 21
2.5
 31
0.0
  0
LINE
  5
350
  8
B
 62
     0
 10
0.0
 20
0.0
 30
0.0
 11
-2.5
 21
0.0
 31
0.0
  0
LINE
  5
351
  8
B
 62
     0
 10
0.0
 20
0.0
 30
0.0
 11
0.0
 21
-2.5
 31
0.0
  0
LINE
  5
352
  8
B
 62
     0
 10
0.0
 20
0.0
 30
0.0
 11
2.5
 21
0.0
 31
0.0
  0
LINE
  5
353
  8
B
 62
     0
 10
0.0
 20
5.0
 30
0.0
 11
0.0
 21
6.5
 31
0.0
  0
LINE
  5
354
  8
B
 62
     0
 10
-5.0
 20
0.0
 30
0.0
 11
-6.5
 21
0.0
 31
0.0
  0
LINE
  5
355
  8
B
 62
     0
 10
0.0
 20
-5.0
 30
0.0
 11
0.0
 21
-6.5
 31
0.0
  0
LINE
  5
356
  8
B
 62
     0
 10
5.0
 20
0.0
 30
0.0
 11
6.5
 21
0.0
 31
0.0
  0
ENDBLK
  5
34E
  8
0
  0
BLOCK
  8
0
  2
*U15
 70
     1
 10
0.0
 20
0.0
 30
0.0
  3
*U15
  1

  0
TEXT
  5
41B
  8
B
 10
83.0710162658019584
 20
751.0148247150907537
 30
0.0
 40
3.5
  1
161.85
 50
90.0000000000003979
 41
0.9129999999999999
  7
SLDTEXTSTYLE2
  0
ENDBLK
  5
41D
  8
0
  0
BLOCK
  8
0
  2
*U16
 70
     1
 10
0.0
 20
0.0
 30
0.0
  3
*U16
  1

  0
TEXT
  5
41F
  8
B
 10
194.5902331379907082
 20
888.4313535128978856
 30
0.0
 40
3.5
  1
186.65
 41
0.9129999999999999
  7
SLDTEXTSTYLE2
  0
ENDBLK
  5
421
  8
0
  0
BLOCK
  8
0
  2
*U17
 70
     1
 10
0.0
 20
0.0
 30
0.0
  3
*U17
  1

  0
TEXT
  5
423
  8
B
 10
12.51655315860339
 20
941.0696009630396475
 30
0.0
 40
3.5
  1

 50
314.9999999999994884
 41
0.9129999999999999
  7
SLDTEXTSTYLE2
  0
ENDBLK
  5
425
  8
0
  0
BLOCK
  8
0
  2
*U18
 70
     1
 10
0.0
 20
0.0
 30
0.0
  3
*U18
  1

  0
TEXT
  5
427
  8
B
 10
16.4636156255312684
 20
937.2856466124804911
 30
0.0
 40
3.5
  1
3.00
 50
314.9999999999994884
 41
0.9129999999999999
  7
SLDTEXTSTYLE2
  0
ENDBLK
  5
429
  8
0
  0
BLOCK
  8
0
  2
*U19
 70
     1
 10
0.0
 20
0.0
 30
0.0
  3
*U19
  1

  0
TEXT
  5
42B
  8
B
 10
275.6777973926908203
 20
902.7791709712979582
 30
0.0
 40
3.5
  1
11.50
 41
0.9129999999999999
  7
SLDTEXTSTYLE2
  0
ENDBLK
  5
42D
  8
0
  0
BLOCK
  8
0
  2
*U20
 70
     1
 10
0.0
 20
0.0
 30
0.0
  3
*U20
  1

  0
TEXT
  5
42F
  8
B
 10
62.3886829968019683
 20
685.3209399005907017
 30
0.0
 40
3.5
  1
12.00
 50
90.0
 41
0.9129999999999999
  7
SLDTEXTSTYLE2
  0
ENDBLK
  5
431
  8
0
  0
ENDSEC
  0
SECTION
  2
ENTITIES
  0
LINE
  5
77
  8
0
 10
392.5264488115000177
 20
718.3498726605000684
 30
0.0
 11
392.5264488115000177
 21
708.3498672961000011
 31
0.0
  0
ARC
  5
78
  8
0
 10
395.0264516129000185
 20
708.3498709677000988
 30
0.0
 40
2.5
 50
180.0
 51
0.0
  0
LINE
  5
79
  8
0
 10
397.5264514937001081
 20
708.3498672961000011
 30
0.0
 11
397.5264514937001081
 21
718.3498726605000684
 31
0.0
  0
ARC
  5
7A
  8
0
 10
395.0264516129000185
 20
718.3498709676999852
 30
0.0
 40
2.5
 50
0.0
 51
180.0
  0
CIRCLE
  5
7B
  8
0
 10
700.5264516128999048
 20
699.4998709676999624
 30
0.0
 40
4.0
  0
CIRCLE
  5
7C
  8
0
 10
300.5264516129000185
 20
299.4998709677000193
 30
0.0
 40
4.0
  0
CIRCLE
  5
7D
  8
0
 10
890.8264516128998594
 20
842.6998709677000079
 30
0.0
 40
1.5
  0
CIRCLE
  5
7E
  8
0
 10
692.6764516128997684
 20
842.6998709677000079
 30
0.0
 40
1.499999999999885
  0
CIRCLE
  5
7F
  8
0
 10
494.5264516128999048
 20
842.6998709677000079
 30
0.0
 40
1.499999999999885
  0
CIRCLE
  5
80
  8
0
 10
296.3764516128999844
 20
842.6998709677000079
 30
0.0
 40
1.499999999999885
  0
CIRCLE
  5
81
  8
0
 10
890.8264516128998594
 20
668.8498709676998715
 30
0.0
 40
1.5
  0
CIRCLE
  5
82
  8
0
 10
692.6764516128997684
 20
668.8498709676998715
 30
0.0
 40
1.5
  0
CIRCLE
  5
83
  8
0
 10
494.5264516128999048
 20
668.8498709676998715
 30
0.0
 40
1.5000000000001139
  0
CIRCLE
  5
84
  8
0
 10
296.3764516128999844
 20
668.8498709676998715
 30
0.0
 40
1.5000000000001139
  0
CIRCLE
  5
85
  8
0
 10
890.8264516128998594
 20
494.9998709676999056
 30
0.0
 40
1.5
  0
CIRCLE
  5
86
  8
0
 10
692.6764516128997684
 20
494.9998709676999056
 30
0.0
 40
1.5
  0
CIRCLE
  5
87
  8
0
 10
494.5264516128999048
 20
494.9998709676999056
 30
0.0
 40
1.4999999999999429
  0
CIRCLE
  5
88
  8
0
 10
296.3764516128999844
 20
494.9998709676999056
 30
0.0
 40
1.5
  0
CIRCLE
  5
89
  8
0
 10
890.8264516128998594
 20
321.1498709676999965
 30
0.0
 40
1.4999999999999429
  0
CIRCLE
  5
8A
  8
0
 10
692.6764516128997684
 20
321.1498709676999965
 30
0.0
 40
1.5
  0
CIRCLE
  5
8B
  8
0
 10
890.8264516128998594
 20
680.8498709676998715
 30
0.0
 40
1.5
  0
CIRCLE
  5
8C
  8
0
 10
692.6764516128997684
 20
680.8498709676998715
 30
0.0
 40
1.5000000000001139
  0
CIRCLE
  5
8D
  8
0
 10
494.5264516128999048
 20
680.8498709676998715
 30
0.0
 40
1.5000000000001139
  0
CIRCLE
  5
8E
  8
0
 10
296.3764516128999844
 20
680.8498709676998715
 30
0.0
 40
1.5000000000001139
  0
CIRCLE
  5
8F
  8
0
 10
890.8264516128998594
 20
506.9998709676999056
 30
0.0
 40
1.4999999999999429
  0
CIRCLE
  5
90
  8
0
 10
692.6764516128997684
 20
506.9998709676999056
 30
0.0
 40
1.4999999999999429
  0
CIRCLE
  5
91
  8
0
 10
494.5264516128999048
 20
506.9998709676999056
 30
0.0
 40
1.4999999999999429
  0
CIRCLE
  5
92
  8
0
 10
296.3764516128999844
 20
506.9998709676999056
 30
0.0
 40
1.4999999999999429
  0
CIRCLE
  5
93
  8
0
 10
890.8264516128998594
 20
333.1498709676999965
 30
0.0
 40
1.5
  0
CIRCLE
  5
94
  8
0
 10
692.6764516128997684
 20
333.1498709676999965
 30
0.0
 40
1.4999999999999429
  0
CIRCLE
  5
95
  8
0
 10
494.5264516128999048
 20
333.1498709676999965
 30
0.0
 40
1.5
  0
CIRCLE
  5
96
  8
0
 10
296.3764516128999844
 20
333.1498709676999965
 30
0.0
 40
1.5
  0
CIRCLE
  5
97
  8
0
 10
890.8264516128998594
 20
159.2998709677000022
 30
0.0
 40
1.5
  0
CIRCLE
  5
98
  8
0
 10
692.6764516128997684
 20
159.2998709677000022
 30
0.0
 40
1.5
  0
CIRCLE
  5
99
  8
0
 10
704.1764516128997684
 20
680.8498709676998715
 30
0.0
 40
1.5
  0
CIRCLE
  5
9A
  8
0
 10
506.0264516129000185
 20
680.8498709676998715
 30
0.0
 40
1.5000000000001139
  0
CIRCLE
  5
9B
  8
0
 10
307.8764516128999844
 20
680.8498709676998715
 30
0.0
 40
1.5000000000001139
  0
CIRCLE
  5
9C
  8
0
 10
109.7264516128999929
 20
680.8498709676998715
 30
0.0
 40
1.5000000000001139
  0
CIRCLE
  5
9D
  8
0
 10
704.1764516128997684
 20
506.9998709676999056
 30
0.0
 40
1.500000000000056
  0
CIRCLE
  5
9E
  8
0
 10
506.0264516129000185
 20
506.9998709676999056
 30
0.0
 40
1.500000000000056
  0
CIRCLE
  5
9F
  8
0
 10
307.8764516128999844
 20
506.9998709676999056
 30
0.0
 40
1.4999999999999429
  0
CIRCLE
  5
A0
  8
0
 10
109.7264516128999929
 20
506.9998709676999056
 30
0.0
 40
1.4999999999999429
  0
CIRCLE
  5
A1
  8
0
 10
704.1764516128997684
 20
333.1498709676999965
 30
0.0
 40
1.5
  0
CIRCLE
  5
A2
  8
0
 10
506.0264516129000185
 20
333.1498709676999965
 30
0.0
 40
1.5
  0
CIRCLE
  5
A3
  8
0
 10
307.8764516128999844
 20
333.1498709676999965
 30
0.0
 40
1.5
  0
CIRCLE
  5
A4
  8
0
 10
109.7264516128999929
 20
333.1498709676999965
 30
0.0
 40
1.5
  0
CIRCLE
  5
A5
  8
0
 10
704.1764516128997684
 20
159.2998709677000022
 30
0.0
 40
1.5
  0
CIRCLE
  5
A6
  8
0
 10
506.0264516129000185
 20
159.2998709677000022
 30
0.0
 40
1.5
  0
CIRCLE
  5
A7
  8
0
 10
307.8764516128999844
 20
321.1498709676999965
 30
0.0
 40
1.500000000000056
  0
CIRCLE
  5
A8
  8
0
 10
109.7264516128999929
 20
321.1498709676999965
 30
0.0
 40
1.5
  0
CIRCLE
  5
A9
  8
0
 10
296.3764516128999844
 20
321.1498709676999965
 30
0.0
 40
1.5
  0
CIRCLE
  5
AA
  8
0
 10
296.3764516128999844
 20
159.2998709677000022
 30
0.0
 40
1.5
  0
CIRCLE
  5
AB
  8
0
 10
109.7264516128999929
 20
159.2998709677000022
 30
0.0
 40
1.5
  0
LINE
  5
AC
  8
0
 10
24.2264504685000013
 20
905.1998691080998469
 30
0.0
 11
24.2264504685000013
 21
93.7998728273999944
 31
0.0
  0
ARC
  5
AD
  8
0
 10
44.2264516129
 20
905.1998709677000079
 30
0.0
 40
20.0000000000002309
 50
90.0
 51
180.0
  0
LINE
  5
AE
  8
0
 10
956.8264420284999687
 20
925.1998798368998678
 30
0.0
 11
44.2264611972999901
 21
925.1998798368998678
 31
0.0
  0
ARC
  5
AF
  8
0
 10
956.826451612899973
 20
905.1998709677000079
 30
0.0
 40
20.0000000000002309
 50
0.0
 51
90.0
  0
LINE
  5
B0
  8
0
 10
976.8264527572999896
 20
93.7998728273999944
 30
0.0
 11
976.8264527572999896
 21
905.1998691080998469
 31
0.0
  0
ARC
  5
B1
  8
0
 10
956.826451612899973
 20
93.799870967699988
 30
0.0
 40
20.0000000000002416
 50
270.0
 51
0.0
  0
LINE
  5
B2
  8
0
 10
44.2264611972999901
 20
73.799862098600002
 30
0.0
 11
956.8264420284999687
 21
73.799862098600002
 31
0.0
  0
ARC
  5
B3
  8
0
 10
44.2264516129
 20
93.799870967699988
 30
0.0
 40
20.0000000000000213
 50
180.0
 51
270.0
  0
LINE
  5
B4
  8
0
 10
252.3764456762999941
 20
292.6498637912999925
 30
0.0
 11
287.3764570011999808
 21
292.6498637912999925
 31
0.0
  0
LINE
  5
B5
  8
0
 10
252.3764456762999941
 20
312.6498745202000009
 30
0.0
 11
252.3764456762999941
 21
292.6498637912999925
 31
0.0
  0
LINE
  5
B6
  8
0
 10
119.2264492764000039
 20
312.6498745202000009
 30
0.0
 11
252.3764456762999941
 21
312.6498745202000009
 31
0.0
  0
LINE
  5
B7
  8
0
 10
119.2264492764000039
 20
168.7998609064999869
 30
0.0
 11
119.2264492764000039
 21
312.6498745202000009
 31
0.0
  0
LINE
  5
B8
  8
0
 10
287.3764570011999808
 20
168.7998609064999869
 30
0.0
 11
119.2264492764000039
 21
168.7998609064999869
 31
0.0
  0
LINE
  5
B9
  8
0
 10
287.3764570011999808
 20
168.7998609064999869
 30
0.0
 11
287.3764570011999808
 21
292.6498637912999925
 31
0.0
  0
CIRCLE
  5
BA
  8
0
 10
506.0264516129000185
 20
321.1498709676999965
 30
0.0
 40
1.500000000000056
  0
CIRCLE
  5
BB
  8
0
 10
704.1764516128997684
 20
321.1498709676999965
 30
0.0
 40
1.5
  0
CIRCLE
  5
BC
  8
0
 10
109.7264516128999929
 20
494.9998709676999056
 30
0.0
 40
1.5
  0
CIRCLE
  5
BD
  8
0
 10
307.8764516128999844
 20
494.9998709676999056
 30
0.0
 40
1.5
  0
CIRCLE
  5
BE
  8
0
 10
506.0264516129000185
 20
494.9998709676999056
 30
0.0
 40
1.5
  0
CIRCLE
  5
BF
  8
0
 10
704.1764516128997684
 20
494.9998709676999056
 30
0.0
 40
1.500000000000056
  0
CIRCLE
  5
C0
  8
0
 10
109.7264516128999929
 20
668.8498709676998715
 30
0.0
 40
1.5000000000001139
  0
CIRCLE
  5
C1
  8
0
 10
307.8764516128999844
 20
668.8498709676998715
 30
0.0
 40
1.5000000000001139
  0
CIRCLE
  5
C2
  8
0
 10
506.0264516129000185
 20
668.8498709676998715
 30
0.0
 40
1.5000000000001139
  0
CIRCLE
  5
C3
  8
0
 10
704.1764516128997684
 20
668.8498709676998715
 30
0.0
 40
1.5000000000001139
  0
CIRCLE
  5
C4
  8
0
 10
109.7264516128999929
 20
842.6998709677000079
 30
0.0
 40
1.499999999999885
  0
CIRCLE
  5
C5
  8
0
 10
307.8764516128999844
 20
842.6998709677000079
 30
0.0
 40
1.499999999999885
  0
CIRCLE
  5
C6
  8
0
 10
506.0264516129000185
 20
842.6998709677000079
 30
0.0
 40
1.499999999999885
  0
CIRCLE
  5
C7
  8
0
 10
307.8764516128999844
 20
159.2998709677000022
 30
0.0
 40
1.5
  0
CIRCLE
  5
C8
  8
0
 10
494.5264516128999048
 20
159.2998709677000022
 30
0.0
 40
1.5
  0
CIRCLE
  5
C9
  8
0
 10
494.5264516128999048
 20
321.1498709676999965
 30
0.0
 40
1.500000000000056
  0
LINE
  5
CA
  8
0
 10
119.2264492764000039
 20
834.1998593328997913
 30
0.0
 11
287.3764570011999808
 21
834.1998593328997913
 31
0.0
  0
LINE
  5
CB
  8
0
 10
119.2264492764000039
 20
690.3498755214999392
 30
0.0
 11
119.2264492764000039
 21
834.1998593328997913
 31
0.0
  0
LINE
  5
CC
  8
0
 10
252.3764456762999941
 20
690.3498755214999392
 30
0.0
 11
119.2264492764000039
 21
690.3498755214999392
 31
0.0
  0
LINE
  5
CD
  8
0
 10
252.3764456762999941
 20
725.3498719453000376
 30
0.0
 11
252.3764456762999941
 21
690.3498755214999392
 31
0.0
  0
LINE
  5
CE
  8
0
 10
287.3764570011999808
 20
725.3498719453000376
 30
0.0
 11
252.3764456762999941
 21
725.3498719453000376
 31
0.0
  0
LINE
  5
CF
  8
0
 10
287.3764570011999808
 20
725.3498719453000376
 30
0.0
 11
287.3764570011999808
 21
834.1998593328997913
 31
0.0
  0
LINE
  5
D0
  8
0
 10
485.5264519482000196
 20
516.4998718916000371
 30
0.0
 11
317.3764581932999818
 21
516.4998718916000371
 31
0.0
  0
LINE
  5
D1
  8
0
 10
485.5264519482000196
 20
516.4998718916000371
 30
0.0
 11
485.5264519482000196
 21
660.3498743293998814
 31
0.0
  0
LINE
  5
D2
  8
0
 10
352.376454616999979
 20
660.3498743293998814
 30
0.0
 11
485.5264519482000196
 21
660.3498743293998814
 31
0.0
  0
LINE
  5
D3
  8
0
 10
352.376454616999979
 20
640.3498636005998605
 30
0.0
 11
352.376454616999979
 21
660.3498743293998814
 31
0.0
  0
LINE
  5
D4
  8
0
 10
317.3764581932999818
 20
640.3498636005998605
 30
0.0
 11
352.376454616999979
 21
640.3498636005998605
 31
0.0
  0
LINE
  5
D5
  8
0
 10
317.3764581932999818
 20
516.4998718916000371
 30
0.0
 11
317.3764581932999818
 21
640.3498636005998605
 31
0.0
  0
LINE
  5
D6
  8
0
 10
119.2264492764000039
 20
516.4998718916000371
 30
0.0
 11
119.2264492764000039
 21
660.3498743293998814
 31
0.0
  0
LINE
  5
D7
  8
0
 10
287.3764570011999808
 20
516.4998718916000371
 30
0.0
 11
119.2264492764000039
 21
516.4998718916000371
 31
0.0
  0
LINE
  5
D8
  8
0
 10
287.3764570011999808
 20
516.4998718916000371
 30
0.0
 11
287.3764570011999808
 21
640.3498636005998605
 31
0.0
  0
LINE
  5
D9
  8
0
 10
252.3764456762999941
 20
640.3498636005998605
 30
0.0
 11
287.3764570011999808
 21
640.3498636005998605
 31
0.0
  0
LINE
  5
DA
  8
0
 10
252.3764456762999941
 20
660.3498743293998814
 30
0.0
 11
252.3764456762999941
 21
640.3498636005998605
 31
0.0
  0
LINE
  5
DB
  8
0
 10
119.2264492764000039
 20
660.3498743293998814
 30
0.0
 11
252.3764456762999941
 21
660.3498743293998814
 31
0.0
  0
LINE
  5
DC
  8
0
 10
317.3764581932999818
 20
292.6498637912999925
 30
0.0
 11
352.376454616999979
 21
292.6498637912999925
 31
0.0
  0
LINE
  5
DD
  8
0
 10
317.3764581932999818
 20
168.7998609064999869
 30
0.0
 11
317.3764581932999818
 21
292.6498637912999925
 31
0.0
  0
LINE
  5
DE
  8
0
 10
485.5264519482000196
 20
168.7998609064999869
 30
0.0
 11
317.3764581932999818
 21
168.7998609064999869
 31
0.0
  0
LINE
  5
DF
  8
0
 10
485.5264519482000196
 20
168.7998609064999869
 30
0.0
 11
485.5264519482000196
 21
312.6498745202000009
 31
0.0
  0
LINE
  5
E0
  8
0
 10
352.376454616999979
 20
312.6498745202000009
 30
0.0
 11
485.5264519482000196
 21
312.6498745202000009
 31
0.0
  0
LINE
  5
E1
  8
0
 10
352.376454616999979
 20
292.6498637912999925
 30
0.0
 11
352.376454616999979
 21
312.6498745202000009
 31
0.0
  0
LINE
  5
E2
  8
0
 10
515.5264512776000174
 20
834.1998593328997913
 30
0.0
 11
683.676445032599986
 21
834.1998593328997913
 31
0.0
  0
LINE
  5
E3
  8
0
 10
515.5264512776000174
 20
690.3498755214999392
 30
0.0
 11
515.5264512776000174
 21
834.1998593328997913
 31
0.0
  0
LINE
  5
E4
  8
0
 10
648.6764486088000012
 20
690.3498755214999392
 30
0.0
 11
515.5264512776000174
 21
690.3498755214999392
 31
0.0
  0
LINE
  5
E5
  8
0
 10
648.6764486088000012
 20
725.3498719453000376
 30
0.0
 11
648.6764486088000012
 21
690.3498755214999392
 31
0.0
  0
LINE
  5
E6
  8
0
 10
683.676445032599986
 20
725.3498719453000376
 30
0.0
 11
648.6764486088000012
 21
725.3498719453000376
 31
0.0
  0
LINE
  5
E7
  8
0
 10
683.676445032599986
 20
725.3498719453000376
 30
0.0
 11
683.676445032599986
 21
834.1998593328997913
 31
0.0
  0
LINE
  5
E8
  8
0
 10
881.8264539494000473
 20
516.4998718916000371
 30
0.0
 11
713.6764462245999994
 21
516.4998718916000371
 31
0.0
  0
LINE
  5
E9
  8
0
 10
881.8264539494000473
 20
516.4998718916000371
 30
0.0
 11
881.8264539494000473
 21
660.3498743293998814
 31
0.0
  0
LINE
  5
EA
  8
0
 10
748.6764575495000145
 20
660.3498743293998814
 30
0.0
 11
881.8264539494000473
 21
660.3498743293998814
 31
0.0
  0
LINE
  5
EB
  8
0
 10
748.6764575495000145
 20
640.3498636005998605
 30
0.0
 11
748.6764575495000145
 21
660.3498743293998814
 31
0.0
  0
LINE
  5
EC
  8
0
 10
713.6764462245999994
 20
640.3498636005998605
 30
0.0
 11
748.6764575495000145
 21
640.3498636005998605
 31
0.0
  0
LINE
  5
ED
  8
0
 10
713.6764462245999994
 20
516.4998718916000371
 30
0.0
 11
713.6764462245999994
 21
640.3498636005998605
 31
0.0
  0
LINE
  5
EE
  8
0
 10
515.5264512776000174
 20
516.4998718916000371
 30
0.0
 11
515.5264512776000174
 21
660.3498743293998814
 31
0.0
  0
LINE
  5
EF
  8
0
 10
683.676445032599986
 20
516.4998718916000371
 30
0.0
 11
515.5264512776000174
 21
516.4998718916000371
 31
0.0
  0
LINE
  5
F0
  8
0
 10
683.676445032599986
 20
516.4998718916000371
 30
0.0
 11
683.676445032599986
 21
640.3498636005998605
 31
0.0
  0
LINE
  5
F1
  8
0
 10
648.6764486088000012
 20
640.3498636005998605
 30
0.0
 11
683.676445032599986
 21
640.3498636005998605
 31
0.0
  0
LINE
  5
F2
  8
0
 10
648.6764486088000012
 20
660.3498743293998814
 30
0.0
 11
648.6764486088000012
 21
640.3498636005998605
 31
0.0
  0
LINE
  5
F3
  8
0
 10
515.5264512776000174
 20
660.3498743293998814
 30
0.0
 11
648.6764486088000012
 21
660.3498743293998814
 31
0.0
  0
LINE
  5
F4
  8
0
 10
515.5264512776000174
 20
168.7998609064999869
 30
0.0
 11
515.5264512776000174
 21
312.6498745202000009
 31
0.0
  0
LINE
  5
F5
  8
0
 10
683.676445032599986
 20
168.7998609064999869
 30
0.0
 11
515.5264512776000174
 21
168.7998609064999869
 31
0.0
  0
LINE
  5
F6
  8
0
 10
683.676445032599986
 20
168.7998609064999869
 30
0.0
 11
683.676445032599986
 21
292.6498637912999925
 31
0.0
  0
LINE
  5
F7
  8
0
 10
648.6764486088000012
 20
292.6498637912999925
 30
0.0
 11
683.676445032599986
 21
292.6498637912999925
 31
0.0
  0
LINE
  5
F8
  8
0
 10
648.6764486088000012
 20
312.6498745202000009
 30
0.0
 11
648.6764486088000012
 21
292.6498637912999925
 31
0.0
  0
LINE
  5
F9
  8
0
 10
515.5264512776000174
 20
312.6498745202000009
 30
0.0
 11
648.6764486088000012
 21
312.6498745202000009
 31
0.0
  0
LINE
  5
FA
  8
0
 10
881.8264539494000473
 20
168.7998609064999869
 30
0.0
 11
713.6764462245999994
 21
168.7998609064999869
 31
0.0
  0
LINE
  5
FB
  8
0
 10
881.8264539494000473
 20
168.7998609064999869
 30
0.0
 11
881.8264539494000473
 21
312.6498745202000009
 31
0.0
  0
LINE
  5
FC
  8
0
 10
748.6764575495000145
 20
312.6498745202000009
 30
0.0
 11
881.8264539494000473
 21
312.6498745202000009
 31
0.0
  0
LINE
  5
FD
  8
0
 10
748.6764575495000145
 20
292.6498637912999925
 30
0.0
 11
748.6764575495000145
 21
312.6498745202000009
 31
0.0
  0
LINE
  5
FE
  8
0
 10
713.6764462245999994
 20
292.6498637912999925
 30
0.0
 11
748.6764575495000145
 21
292.6498637912999925
 31
0.0
  0
LINE
  5
FF
  8
0
 10
713.6764462245999994
 20
168.7998609064999869
 30
0.0
 11
713.6764462245999994
 21
292.6498637912999925
 31
0.0
  0
LINE
  5
100
  8
0
 10
881.8264539494000473
 20
690.3498755214999392
 30
0.0
 11
881.8264539494000473
 21
834.1998593328997913
 31
0.0
  0
LINE
  5
101
  8
0
 10
713.6764462245999994
 20
834.1998593328997913
 30
0.0
 11
881.8264539494000473
 21
834.1998593328997913
 31
0.0
  0
LINE
  5
102
  8
0
 10
713.6764462245999994
 20
725.3498719453000376
 30
0.0
 11
713.6764462245999994
 21
834.1998593328997913
 31
0.0
  0
LINE
  5
103
  8
0
 10
748.6764575495000145
 20
725.3498719453000376
 30
0.0
 11
713.6764462245999994
 21
725.3498719453000376
 31
0.0
  0
LINE
  5
104
  8
0
 10
748.6764575495000145
 20
690.3498755214999392
 30
0.0
 11
748.6764575495000145
 21
725.3498719453000376
 31
0.0
  0
LINE
  5
105
  8
0
 10
881.8264539494000473
 20
690.3498755214999392
 30
0.0
 11
748.6764575495000145
 21
690.3498755214999392
 31
0.0
  0
LINE
  5
106
  8
0
 10
287.3764570011999808
 20
377.649872135999999
 30
0.0
 11
252.3764456762999941
 21
377.649872135999999
 31
0.0
  0
LINE
  5
107
  8
0
 10
287.3764570011999808
 20
377.649872135999999
 30
0.0
 11
287.3764570011999808
 21
486.4998706994999793
 31
0.0
  0
LINE
  5
108
  8
0
 10
119.2264492764000039
 20
486.4998706994999793
 30
0.0
 11
287.3764570011999808
 21
486.4998706994999793
 31
0.0
  0
LINE
  5
109
  8
0
 10
119.2264492764000039
 20
342.6498757123000019
 30
0.0
 11
119.2264492764000039
 21
486.4998706994999793
 31
0.0
  0
LINE
  5
10A
  8
0
 10
252.3764456762999941
 20
342.6498757123000019
 30
0.0
 11
119.2264492764000039
 21
342.6498757123000019
 31
0.0
  0
LINE
  5
10B
  8
0
 10
252.3764456762999941
 20
377.649872135999999
 30
0.0
 11
252.3764456762999941
 21
342.6498757123000019
 31
0.0
  0
LINE
  5
10C
  8
0
 10
352.376454616999979
 20
342.6498757123000019
 30
0.0
 11
352.376454616999979
 21
377.649872135999999
 31
0.0
  0
LINE
  5
10D
  8
0
 10
485.5264519482000196
 20
342.6498757123000019
 30
0.0
 11
352.376454616999979
 21
342.6498757123000019
 31
0.0
  0
LINE
  5
10E
  8
0
 10
485.5264519482000196
 20
342.6498757123000019
 30
0.0
 11
485.5264519482000196
 21
486.4998706994999793
 31
0.0
  0
LINE
  5
10F
  8
0
 10
317.3764581932999818
 20
486.4998706994999793
 30
0.0
 11
485.5264519482000196
 21
486.4998706994999793
 31
0.0
  0
LINE
  5
110
  8
0
 10
317.3764581932999818
 20
377.649872135999999
 30
0.0
 11
317.3764581932999818
 21
486.4998706994999793
 31
0.0
  0
LINE
  5
111
  8
0
 10
352.376454616999979
 20
377.649872135999999
 30
0.0
 11
317.3764581932999818
 21
377.649872135999999
 31
0.0
  0
LINE
  5
112
  8
0
 10
515.5264512776000174
 20
486.4998706994999793
 30
0.0
 11
683.676445032599986
 21
486.4998706994999793
 31
0.0
  0
LINE
  5
113
  8
0
 10
515.5264512776000174
 20
342.6498757123000019
 30
0.0
 11
515.5264512776000174
 21
486.4998706994999793
 31
0.0
  0
LINE
  5
114
  8
0
 10
648.6764486088000012
 20
342.6498757123000019
 30
0.0
 11
515.5264512776000174
 21
342.6498757123000019
 31
0.0
  0
LINE
  5
115
  8
0
 10
648.6764486088000012
 20
377.649872135999999
 30
0.0
 11
648.6764486088000012
 21
342.6498757123000019
 31
0.0
  0
LINE
  5
116
  8
0
 10
683.676445032599986
 20
377.649872135999999
 30
0.0
 11
648.6764486088000012
 21
377.649872135999999
 31
0.0
  0
LINE
  5
117
  8
0
 10
683.676445032599986
 20
377.649872135999999
 30
0.0
 11
683.676445032599986
 21
486.4998706994999793
 31
0.0
  0
LINE
  5
118
  8
0
 10
881.8264539494000473
 20
342.6498757123000019
 30
0.0
 11
881.8264539494000473
 21
486.4998706994999793
 31
0.0
  0
LINE
  5
119
  8
0
 10
713.6764462245999994
 20
486.4998706994999793
 30
0.0
 11
881.8264539494000473
 21
486.4998706994999793
 31
0.0
  0
LINE
  5
11A
  8
0
 10
713.6764462245999994
 20
377.649872135999999
 30
0.0
 11
713.6764462245999994
 21
486.4998706994999793
 31
0.0
  0
LINE
  5
11B
  8
0
 10
748.6764575495000145
 20
377.649872135999999
 30
0.0
 11
713.6764462245999994
 21
377.649872135999999
 31
0.0
  0
LINE
  5
11C
  8
0
 10
748.6764575495000145
 20
342.6498757123000019
 30
0.0
 11
748.6764575495000145
 21
377.649872135999999
 31
0.0
  0
LINE
  5
11D
  8
0
 10
881.8264539494000473
 20
342.6498757123000019
 30
0.0
 11
748.6764575495000145
 21
342.6498757123000019
 31
0.0
  0
CIRCLE
  5
11E
  8
0
 10
300.5264516129000185
 20
699.4998709676999624
 30
0.0
 40
4.0
  0
CIRCLE
  5
11F
  8
0
 10
700.5264516128999048
 20
299.4998709677000193
 30
0.0
 40
4.0
  0
LINE
  5
120
  8
0
 10
485.5264519482000196
 20
725.3498719453000376
 30
0.0
 11
385.5264495266999916
 21
725.3498719453000376
 31
0.0
  0
LINE
  5
121
  8
0
 10
485.5264519482000196
 20
725.3498719453000376
 30
0.0
 11
485.5264519482000196
 21
834.1998593328997913
 31
0.0
  0
LINE
  5
122
  8
0
 10
317.3764581932999818
 20
834.1998593328997913
 30
0.0
 11
485.5264519482000196
 21
834.1998593328997913
 31
0.0
  0
LINE
  5
123
  8
0
 10
317.3764581932999818
 20
725.3498719453000376
 30
0.0
 11
317.3764581932999818
 21
834.1998593328997913
 31
0.0
  0
LINE
  5
124
  8
0
 10
352.376454616999979
 20
725.3498719453000376
 30
0.0
 11
317.3764581932999818
 21
725.3498719453000376
 31
0.0
  0
LINE
  5
125
  8
0
 10
352.376454616999979
 20
690.3498755214999392
 30
0.0
 11
352.376454616999979
 21
725.3498719453000376
 31
0.0
  0
LINE
  5
126
  8
0
 10
385.5264495266999916
 20
690.3498755214999392
 30
0.0
 11
352.376454616999979
 21
690.3498755214999392
 31
0.0
  0
LINE
  5
127
  8
0
 10
385.5264495266999916
 20
725.3498719453000376
 30
0.0
 11
385.5264495266999916
 21
690.3498755214999392
 31
0.0
  0
LINE
  5
128
  8
0
 10
397.5264514937001081
 20
678.3498661039999433
 30
0.0
 11
397.5264514937001081
 21
668.3498756407000201
 31
0.0
  0
ARC
  5
129
  8
0
 10
395.0264516129000185
 20
678.3498709676998715
 30
0.0
 40
2.5
 50
0.0
 51
180.0
  0
LINE
  5
12A
  8
0
 10
392.5264488115000177
 20
678.3498661039999433
 30
0.0
 11
392.5264488115000177
 21
668.3498756407000201
 31
0.0
  0
ARC
  5
12B
  8
0
 10
395.0264516129000185
 20
668.3498709676998715
 30
0.0
 40
2.5
 50
180.0
 51
0.0
  0
ARC
  5
12C
  8
0
 10
214.2264516129000071
 20
675.3498709676999852
 30
0.0
 40
2.5000000000001141
 50
270.0
 51
90.0
  0
LINE
  5
12D
  8
0
 10
214.2264480842999887
 20
677.8498725412998738
 30
0.0
 11
204.2264576210999962
 21
677.8498725412998738
 31
0.0
  0
ARC
  5
12E
  8
0
 10
204.2264516129000071
 20
675.3498709676999852
 30
0.0
 40
2.5000000000001141
 50
90.0
 51
270.0
  0
LINE
  5
12F
  8
0
 10
204.2264576210999962
 20
672.8498773096998775
 30
0.0
 11
214.2264480842999887
 21
672.8498773096998775
 31
0.0
  0
ARC
  5
130
  8
0
 10
826.8264516128998594
 20
675.3498709676999852
 30
0.0
 40
2.5000000000001141
 50
90.0
 51
270.0
  0
LINE
  5
131
  8
0
 10
826.8264467967998144
 20
672.8498773096998775
 30
0.0
 11
836.826437260099965
 21
672.8498773096998775
 31
0.0
  0
ARC
  5
132
  8
0
 10
836.8264516128998594
 20
675.3498709676999852
 30
0.0
 40
2.5000000000001141
 50
270.0
 51
90.0
  0
LINE
  5
133
  8
0
 10
836.826437260099965
 20
677.8498725412998738
 30
0.0
 11
826.8264467967998144
 21
677.8498725412998738
 31
0.0
  0
ARC
  5
134
  8
0
 10
786.8264516128998594
 20
675.3498709676999852
 30
0.0
 40
2.5000000000001141
 50
90.0
 51
270.0
  0
LINE
  5
135
  8
0
 10
786.8264551414998778
 20
672.8498773096998775
 30
0.0
 11
796.826445604799801
 21
672.8498773096998775
 31
0.0
  0
ARC
  5
136
  8
0
 10
796.8264516128998594
 20
675.3498709676999852
 30
0.0
 40
2.5000000000001141
 50
270.0
 51
90.0
  0
LINE
  5
137
  8
0
 10
796.826445604799801
 20
677.8498725412998738
 30
0.0
 11
786.8264551414998778
 21
677.8498725412998738
 31
0.0
  0
ARC
  5
138
  8
0
 10
174.2264516129000071
 20
675.3498709676999852
 30
0.0
 40
2.5000000000001141
 50
270.0
 51
90.0
  0
LINE
  5
139
  8
0
 10
174.2264564289999953
 20
677.8498725412998738
 30
0.0
 11
164.2264659656999868
 21
677.8498725412998738
 31
0.0
  0
ARC
  5
13A
  8
0
 10
164.2264516129000071
 20
675.3498709676999852
 30
0.0
 40
2.5000000000001141
 50
90.0
 51
270.0
  0
LINE
  5
13B
  8
0
 10
164.2264659656999868
 20
672.8498773096998775
 30
0.0
 11
174.2264564289999953
 21
672.8498773096998775
 31
0.0
  0
CIRCLE
  5
13C
  8
0
 10
704.1764516128997684
 20
842.6998709677000079
 30
0.0
 40
1.5
  0
INSERT
  5
1E3
  8
B
  2
SW_CENTERMARKSYMBOL_0
 10
307.8764516128999844
 20
321.1498709676999965
 30
0.0
  0
INSERT
  5
24F
  8
B
  2
SW_CENTERMARKSYMBOL_1
 10
307.8764516128999844
 20
159.2998709677000022
 30
0.0
  0
INSERT
  5
2BB
  8
B
  2
SW_CENTERMARKSYMBOL_2
 10
494.5264516128999048
 20
159.2998709677000022
 30
0.0
  0
INSERT
  5
327
  8
B
  2
SW_CENTERMARKSYMBOL_3
 10
494.5264516128999048
 20
321.1498709676999965
 30
0.0
  0
INSERT
  5
333
  8
B
  2
SW_CENTERMARKSYMBOL_4
 10
300.5264516129000185
 20
699.4998709676999624
 30
0.0
  0
INSERT
  5
33F
  8
B
  2
SW_CENTERMARKSYMBOL_5
 10
300.5264516129000185
 20
299.4998709677000193
 30
0.0
  0
INSERT
  5
34B
  8
B
  2
SW_CENTERMARKSYMBOL_6
 10
700.5264516128999048
 20
299.4998709677000193
 30
0.0
  0
INSERT
  5
357
  8
B
  2
SW_CENTERMARKSYMBOL_7
 10
700.5264516128999048
 20
699.4998709676999624
 30
0.0
  0
ENDSEC
  0
EOF
